<?xml version="1.0" encoding="UTF-8" standalone="no"?>
<!-- Created with Inkscape (http://www.inkscape.org/) -->

<svg
   width="210mm"
   height="297mm"
   viewBox="0 0 210 297"
   version="1.1"
   id="svg1"
   inkscape:version="1.4 (e7c3feb1, 2024-10-09)"
   sodipodi:docname="akrlring cirkel.svg"
   xmlns:inkscape="http://www.inkscape.org/namespaces/inkscape"
   xmlns:sodipodi="http://sodipodi.sourceforge.net/DTD/sodipodi-0.dtd"
   xmlns="http://www.w3.org/2000/svg"
   xmlns:svg="http://www.w3.org/2000/svg">
  <sodipodi:namedview
     id="namedview1"
     pagecolor="#ffffff"
     bordercolor="#000000"
     borderopacity="0.25"
     inkscape:showpageshadow="2"
     inkscape:pageopacity="0.0"
     inkscape:pagecheckerboard="0"
     inkscape:deskcolor="#d1d1d1"
     inkscape:document-units="mm"
     inkscape:window-width="1712"
     inkscape:window-height="1045"
     inkscape:window-x="0"
     inkscape:window-y="39"
     inkscape:window-maximized="1"
     inkscape:current-layer="layer1" />
  <defs
     id="defs1" />
  <g
     inkscape:label="Layer 1"
     inkscape:groupmode="layer"
     id="layer1">
    <path
       id="ellipse1"
       style="opacity:1;fill:none;fill-opacity:1;stroke:#000000;stroke-width:0.386395;stroke-dasharray:none;paint-order:stroke fill markers"
       d="m 97.644327,43.955881 a 54.807583,54.808971 0 0 0 -54.807512,54.809058 54.807583,54.808971 0 0 0 54.807512,54.809061 54.807583,54.808971 0 0 0 54.807503,-54.809061 54.807583,54.808971 0 0 0 -54.807503,-54.809058 z m 0,4.983675 a 49.825035,49.825726 0 0 1 49.824863,49.825383 49.825035,49.825726 0 0 1 -49.824863,49.825901 49.825035,49.825726 0 0 1 -49.82487,-49.825901 49.825035,49.825726 0 0 1 49.82487,-49.825383 z" />
    <ellipse
       style="opacity:1;fill:none;fill-opacity:1;stroke:#000000;stroke-width:0.269;stroke-dasharray:none;paint-order:stroke fill markers"
       id="path1"
       cx="97.632912"
       cy="98.768456"
       rx="41.832912"
       ry="41.819347" />
  </g>
</svg>
