<?xml version="1.0" encoding="UTF-8" standalone="no"?>
<!-- Created with Inkscape (http://www.inkscape.org/) -->

<svg
   width="400mm"
   height="400mm"
   viewBox="0 0 400 400"
   version="1.1"
   id="svg1"
   xml:space="preserve"
   inkscape:version="1.4 (e7c3feb1, 2024-10-09)"
   sodipodi:docname="Evolving sweden UppMAEKE.svg"
   inkscape:export-filename="Uppmake.png"
   inkscape:export-xdpi="300"
   inkscape:export-ydpi="300"
   xmlns:inkscape="http://www.inkscape.org/namespaces/inkscape"
   xmlns:sodipodi="http://sodipodi.sourceforge.net/DTD/sodipodi-0.dtd"
   xmlns="http://www.w3.org/2000/svg"
   xmlns:svg="http://www.w3.org/2000/svg"><sodipodi:namedview
     id="namedview1"
     pagecolor="#000000"
     bordercolor="#000000"
     borderopacity="0"
     inkscape:showpageshadow="2"
     inkscape:pageopacity="0.0"
     inkscape:pagecheckerboard="0"
     inkscape:deskcolor="#d1d1d1"
     inkscape:document-units="mm"
     inkscape:zoom="0.31788348"
     inkscape:cx="599.27619"
     inkscape:cy="893.40912"
     inkscape:window-width="1680"
     inkscape:window-height="997"
     inkscape:window-x="0"
     inkscape:window-y="39"
     inkscape:window-maximized="0"
     inkscape:current-layer="g3" /><defs
     id="defs1"><inkscape:perspective
       sodipodi:type="inkscape:persp3d"
       inkscape:vp_x="0 : 251.49999 : 1"
       inkscape:vp_y="0 : 999.99996 : 0"
       inkscape:vp_z="210 : 251.49999 : 1"
       inkscape:persp3d-origin="105 : 202 : 1"
       id="perspective2" /></defs><g
     inkscape:label="Layer 1"
     inkscape:groupmode="layer"
     id="layer1"><g
       id="g3"
       transform="translate(-4.8573719,-8.0399065)"><path
         style="font-weight:bold;font-size:76.3731px;font-family:'Geeza Pro';-inkscape-font-specification:'Geeza Pro, Bold';text-align:center;letter-spacing:0px;word-spacing:0px;text-anchor:middle;fill:#ffffff;fill-rule:evenodd;stroke-width:22.721;stroke-linecap:round"
         d="m 28.741214,152.24725 c 12.491826,-0.0675 29.331823,-0.13379 37.422219,-0.14735 31.491745,-0.0529 92.308367,-0.2561 108.360577,-0.36216 9.27698,-0.0613 29.13701,-0.12555 44.13339,-0.14282 14.99637,-0.0173 41.63706,-0.0902 59.20157,-0.16209 17.56448,-0.0719 63.58088,-0.20818 102.25859,-0.30288 38.6778,-0.0947 73.52515,-0.18515 77.4387,-0.20098 l 7.11546,-0.0288 -2.35416,-1.68382 c -1.29479,-0.92613 -3.61983,-2.44328 -5.16681,-3.3715 l -2.81262,-1.68763 -16.46737,0.074 c -9.05704,0.0407 -28.73689,0.084 -43.73297,0.0961 -14.99611,0.0121 -46.96531,0.10556 -71.04265,0.20757 -64.73351,0.27421 -98.9514,0.38463 -119.84177,0.38673 -17.28044,0.002 -106.091042,0.33966 -165.273841,0.62887 l -25.33585,0.12381 -3.135955,2.17683 c -5.6503426,3.92223 -6.0521178,4.30183 -4.6761385,4.41782 0.6584745,0.0555 11.4178045,0.0457 23.9096285,-0.0217 z"
         transform="matrix(0.8428339,-0.09953505,0.04807376,1.1807961,0,0)"
         id="path26" /><path
         style="font-weight:bold;font-size:76.3731px;font-family:'Geeza Pro';-inkscape-font-specification:'Geeza Pro, Bold';text-align:center;letter-spacing:0px;word-spacing:0px;text-anchor:middle;fill:#ffffff;fill-rule:evenodd;stroke-width:22.721;stroke-linecap:round"
         d="m 215.23238,227.23354 c 18.80638,-0.045 59.71576,-0.16127 103.3343,-0.29378 48.02621,-0.14592 126.99337,-0.5811 129.47053,-0.7135 2.24064,-0.11981 3.70305,-0.76679 7.29336,-3.2267 2.46997,-1.69228 4.36382,-3.16421 4.20862,-3.27092 -0.15537,-0.10675 -7.38758,-0.15336 -16.07195,-0.10369 -8.68438,0.0496 -42.2708,0.19346 -74.63649,0.31956 -126.10758,0.49132 -168.71076,0.70142 -170.27087,0.83961 -1.44167,0.12779 -9.09709,5.40089 -9.14846,6.30159 -0.0111,0.19518 1.19252,0.31915 2.67481,0.27578 1.48229,-0.0433 11.89807,-0.10103 23.14615,-0.12796 z"
         transform="matrix(0.8428339,-0.09953505,0.04807376,1.1807961,0,0)"
         id="path25" /><path
         id="path23"
         style="font-weight:bold;font-size:76.3731px;font-family:'Geeza Pro';-inkscape-font-specification:'Geeza Pro, Bold';text-align:center;letter-spacing:0px;word-spacing:0px;text-anchor:middle;fill:#ffffff;fill-rule:evenodd;stroke-width:22.721;stroke-linecap:round"
         transform="matrix(0.8428339,-0.09953505,0.04807376,1.1807961,0,0)"
         d="m 150.15993,234.51457 q -0.41987,-3.24492 0.45258,-5.72662 0.91833,-2.48178 2.77124,-4.12673 1.89409,-1.6815 4.5392,-2.52572 2.69097,-0.84434 5.81176,-0.85075 3.07483,-0.006 5.89106,0.82667 2.8621,0.83291 5.14433,2.50581 2.2775,1.63646 3.79151,4.11322 1.55991,2.47671 1.97978,5.72161 0.41986,3.24491 -0.49848,5.7267 -0.87242,2.48171 -2.72062,4.16311 -1.85293,1.64492 -4.49803,2.48915 -2.59922,0.84414 -5.67406,0.85047 -3.12078,0.006 -6.02876,-0.8264 -2.86212,-0.8329 -5.1855,-2.46922 -2.28222,-1.67289 -3.84214,-4.14962 -1.51402,-2.47679 -1.93389,-5.72169 z m 4.68114,-0.01 q 0.2972,2.29697 1.2768,4.19135 0.9749,1.85792 2.47565,3.16775 1.54662,1.3097 3.56848,2.03492 2.06307,0.68867 4.49541,0.68366 2.43238,-0.005 4.27028,-0.70168 1.83317,-0.73317 2.99423,-2.04844 1.20697,-1.31539 1.70066,-3.17633 0.489,-1.89739 0.19178,-4.19436 -0.29721,-2.29697 -1.2721,-4.15487 -0.97962,-1.89441 -2.52623,-3.2041 -1.50073,-1.30983 -3.51789,-1.99859 -2.02187,-0.72523 -4.45426,-0.72021 -2.43235,0.005 -4.31141,0.73824 -1.83789,0.6967 -3.04486,2.01209 -1.16108,1.31527 -1.65006,3.21268 -0.4937,1.86092 -0.19646,4.15789 z" /><path
         id="path21"
         style="font-weight:bold;font-size:76.3731px;font-family:'Geeza Pro';-inkscape-font-specification:'Geeza Pro, Bold';text-align:center;letter-spacing:0px;word-spacing:0px;text-anchor:middle;fill:#ffffff;fill-rule:evenodd;stroke-width:22.721;stroke-linecap:round"
         transform="matrix(0.8428339,-0.09953505,0.04807376,1.1807961,0,0)"
         d="m 138.90958,236.61643 q 0.82865,0.7277 2.08576,1.92862 1.2983,1.16431 2.68024,2.62026 1.37721,1.41947 2.72739,2.98486 1.39609,1.5653 2.41088,3.022 l -4.86471,0.01 q -1.09714,-1.38358 -2.38256,-2.80323 -1.23953,-1.41975 -2.5061,-2.69358 -1.27127,-1.31026 -2.51894,-2.43825 -1.20181,-1.12806 -2.18229,-1.96485 -0.59189,0.0376 -1.2344,0.0389 -0.59662,0.001 -1.23913,0.003 l -3.99273,0.008 1.27845,9.88057 -4.45166,0.009 -3.22208,-24.9019 q 1.83445,-0.36846 4.11498,-0.48255 2.32168,-0.15075 4.24921,-0.15471 6.70045,-0.0138 10.44781,1.98432 3.79326,1.99799 4.30748,5.97209 0.3255,2.51572 -1.14141,4.30571 -1.42099,1.78995 -4.56621,2.67166 z m -8.27954,-11.83545 q -2.84539,0.006 -4.34575,0.11815 l 1.23127,9.51596 3.16666,-0.007 q 2.29467,-0.005 4.10681,-0.19084 1.81215,-0.18613 2.98524,-0.69905 1.21896,-0.51308 1.78944,-1.42596 0.56573,-0.94939 0.3676,-2.48069 -0.18399,-1.42193 -0.99504,-2.36845 -0.81106,-0.94652 -2.07505,-1.49097 -1.2181,-0.54451 -2.85268,-0.75998 -1.58867,-0.21564 -3.37852,-0.21188 z" /><path
         id="path18"
         style="font-weight:bold;font-size:76.3731px;font-family:'Geeza Pro';-inkscape-font-specification:'Geeza Pro, Bold';text-align:center;letter-spacing:0px;word-spacing:0px;text-anchor:middle;fill:#ffffff;fill-rule:evenodd;stroke-width:22.721;stroke-linecap:round"
         transform="matrix(0.8428339,-0.09953505,0.04807376,1.1807961,0,0)"
         d="m 103.8207,247.48351 q -0.96377,0.002 -2.11581,-0.0321 -1.10616,-0.0341 -2.262956,-0.10496 -1.110858,-0.0706 -2.226469,-0.17794 -1.115596,-0.10767 -2.057032,-0.28747 l -3.170191,-24.50085 q 0.894276,-0.18423 1.981589,-0.2957 1.087268,-0.1118 2.179292,-0.18688 1.137915,-0.0751 2.234608,-0.11416 1.096727,-0.0386 2.060499,-0.0406 2.75361,-0.006 5.18254,0.31772 2.47483,0.32327 4.32254,1.12162 1.88892,0.762 3.06368,2.03599 1.17478,1.27401 1.41537,3.13347 0.2689,2.07818 -0.79568,3.42972 -1.06929,1.31511 -3.04958,1.97561 2.88441,0.6505 4.72057,2.06904 1.83615,1.41854 2.17109,4.00718 0.49063,3.79179 -2.79313,5.73141 -3.24261,1.90307 -10.86092,1.91874 z m -5.72838,-11.98657 1.151077,8.89611 q 0.50954,0.0353 1.202643,0.0704 0.60133,0.0351 1.38622,0.07 0.82609,-0.002 1.88162,-0.004 1.97343,-0.004 3.69378,-0.18998 1.76155,-0.22243 3.0264,-0.73561 1.26488,-0.51317 1.92712,-1.42627 0.70814,-0.91317 0.52888,-2.29866 -0.1604,-1.23963 -0.86552,-2.07697 -0.70983,-0.87382 -1.92321,-1.38188 -1.16749,-0.50815 -2.75618,-0.72372 -1.58868,-0.21564 -3.5162,-0.21157 z m -0.367969,-2.84387 4.681129,-0.01 q 1.65217,-0.003 3.09716,-0.18876 1.445,-0.18536 2.43922,-0.66146 1.04012,-0.47621 1.53766,-1.2431 0.54344,-0.76698 0.39249,-1.93369 -0.14152,-1.09377 -0.87839,-1.82166 -0.74158,-0.76433 -1.94553,-1.19949 -1.16276,-0.47168 -2.70555,-0.68735 -1.54279,-0.21565 -3.24085,-0.21212 -1.698055,0.004 -2.657107,0.0419 -0.95905,0.0383 -1.729821,0.11278 z" /><path
         style="font-weight:bold;font-size:76.3731px;font-family:'Geeza Pro';-inkscape-font-specification:'Geeza Pro, Bold';text-align:center;letter-spacing:0px;word-spacing:0px;text-anchor:middle;fill:#ffffff;fill-rule:evenodd;stroke-width:22.721;stroke-linecap:round"
         d="m 69.005188,247.33634 -3.269255,-25.26649 19.412933,-0.0399 0.391558,3.02613 -14.96127,0.0308 0.971814,7.5107 13.309101,-0.0274 0.382121,2.95324 -13.3091,0.0274 1.132205,8.75029 16.108607,-0.0331 0.391557,3.02616 z"
         transform="matrix(0.8428339,-0.09953505,0.04807376,1.1807961,0,0)"
         id="path17" /><path
         id="path15"
         style="font-weight:bold;font-size:76.3731px;font-family:'Geeza Pro';-inkscape-font-specification:'Geeza Pro, Bold';text-align:center;letter-spacing:0px;word-spacing:0px;text-anchor:middle;fill:#ffffff;fill-rule:evenodd;stroke-width:22.721;stroke-linecap:round"
         transform="matrix(0.8428339,-0.09953505,0.04807376,1.1807961,0,0)"
         d="m 54.328011,236.79041 q 0.828649,0.7277 2.08577,1.92862 1.298295,1.16432 2.680232,2.62026 1.377212,1.41947 2.7274,2.98484 1.396082,1.56531 2.410871,3.02201 l -4.864707,0.01 q -1.097137,-1.38358 -2.382562,-2.80324 -1.239536,-1.41976 -2.506093,-2.69358 -1.271274,-1.31025 -2.518958,-2.43824 -1.201796,-1.12807 -2.182271,-1.96486 -0.591907,0.0377 -1.23441,0.0389 -0.596614,0.001 -1.239128,0.003 l -3.992731,0.008 1.278456,9.88055 -4.451661,0.009 -3.222083,-24.90189 q 1.834455,-0.36845 4.114975,-0.48255 2.321684,-0.15076 4.249208,-0.15471 6.700447,-0.0138 10.447814,1.98433 3.793258,1.99798 4.307473,5.97207 0.325509,2.51572 -1.141391,4.30572 -1.421001,1.78995 -4.566219,2.67164 z m -8.279538,-11.83545 q -2.845392,0.006 -4.34575,0.11816 l 1.231279,9.51595 3.166651,-0.007 q 2.294673,-0.005 4.106816,-0.19083 1.812145,-0.18612 2.985229,-0.69905 1.218975,-0.51308 1.789439,-1.42596 0.565742,-0.9494 0.367607,-2.48069 -0.183993,-1.42192 -0.995042,-2.36844 -0.811054,-0.94653 -2.075045,-1.49097 -1.218101,-0.54454 -2.852679,-0.76002 -1.588689,-0.21538 -3.378527,-0.21187 z" /><path
         id="path11"
         style="font-weight:bold;font-size:76.3731px;font-family:'Geeza Pro';-inkscape-font-specification:'Geeza Pro, Bold';text-align:center;letter-spacing:0px;word-spacing:0px;text-anchor:middle;fill:#ffffff;fill-rule:evenodd;stroke-width:22.721;stroke-linecap:round"
         d="m 1.5111061,234.82065 q -0.4198617,-3.2449 0.4525727,-5.72659 0.9183314,-2.48178 2.771247,-4.12676 1.8940903,-1.68147 4.5391922,-2.5257 2.690996,-0.84432 5.811754,-0.85074 3.074861,-0.006 5.891079,0.82667 2.86211,0.8329 5.144323,2.50578 2.277499,1.63646 3.791522,4.11325 1.559911,2.47669 1.979772,5.72161 0.419861,3.24489 -0.498472,5.72668 -0.872437,2.48173 -2.720636,4.16312 -1.852916,1.64492 -4.49802,2.48916 -2.599213,0.84414 -5.67407,0.85045 -3.120758,0.006 -6.028763,-0.82639 -2.8621091,-0.83291 -5.1854941,-2.46924 -2.2822124,-1.67289 -3.8421336,-4.14961 -1.514022,-2.47678 -1.9338862,-5.72169 z m 4.6811342,-0.01 q 0.2972086,2.29696 1.2768178,4.19132 0.9748862,1.85795 2.4756322,3.16776 1.5466317,1.3097 3.5685067,2.03493 2.063053,0.68867 4.495407,0.68367 2.432351,-0.005 4.270244,-0.7017 1.833174,-0.73316 2.994253,-2.04841 1.206971,-1.3154 1.700673,-3.17636 0.488984,-1.89739 0.191792,-4.19435 -0.297208,-2.29697 -1.272091,-4.15488 -0.979615,-1.8944 -2.526248,-3.20408 -1.500741,-1.30982 -3.517898,-1.99859 -2.021877,-0.72524 -4.45423,-0.72023 -2.432353,0.005 -4.311425,0.73826 -1.8378865,0.69669 -3.0448565,2.01207 -1.161085,1.31527 -1.6500635,3.2127 -0.4937052,1.86092 -0.1965102,4.15789 z m 4.1447727,-15.50796 q -1.055554,0.002 -1.9571135,-0.5795 -0.8603859,-0.6182 -0.9830425,-1.56614 -0.1226538,-0.94794 0.5820497,-1.53292 0.7458853,-0.62151 1.8014326,-0.62368 1.0555577,-0.002 1.9159397,0.61604 0.901563,0.58167 1.024216,1.5296 0.122654,0.94795 -0.623223,1.56946 -0.704711,0.58498 -1.760259,0.58714 z m 8.719756,-0.0179 q -1.055554,0.002 -1.957114,-0.57947 -0.860385,-0.61824 -0.983042,-1.56617 -0.122653,-0.94794 0.582049,-1.5329 0.745887,-0.62154 1.801436,-0.6237 1.055555,-0.002 1.915938,0.61604 0.901562,0.58168 1.024219,1.5296 0.122653,0.94795 -0.623227,1.56947 -0.704708,0.58497 -1.760259,0.58713 z"
         transform="matrix(0.8428339,-0.09953505,0.04807376,1.1807961,0,0)" /><path
         style="font-weight:bold;font-size:76.3731px;font-family:'Geeza Pro';-inkscape-font-specification:'Geeza Pro, Bold';text-align:center;letter-spacing:0px;word-spacing:0px;text-anchor:middle;fill:#ffffff;fill-rule:evenodd;stroke-width:22.721;stroke-linecap:round"
         d="m 446.05933,211.67015 h -40.163 v -55.52712 h 40.163 v 10.73997 h -25.91763 v 9.58392 h 24.05306 v 10.73997 h -24.05306 v 13.72329 h 25.91763 z"
         transform="matrix(0.8428339,-0.09953505,0.04807376,1.1807961,0,0)"
         id="path10" /><path
         style="font-weight:bold;font-size:76.3731px;font-family:'Geeza Pro';-inkscape-font-specification:'Geeza Pro, Bold';text-align:center;letter-spacing:0px;word-spacing:0px;text-anchor:middle;fill:#ffffff;fill-rule:evenodd;stroke-width:22.721;stroke-linecap:round"
         d="m 398.84823,211.67015 h -17.56432 l -16.59474,-22.22576 -3.35624,4.06477 v 18.16099 h -14.31996 v -55.52712 h 14.31996 v 25.13451 l 19.8391,-25.13451 h 16.59474 l -21.70368,25.69388 z"
         transform="matrix(0.8428339,-0.09953505,0.04807376,1.1807961,0,0)"
         id="path9" /><path
         id="path7"
         style="font-weight:bold;font-size:76.3731px;font-family:'Geeza Pro';-inkscape-font-specification:'Geeza Pro, Bold';text-align:center;letter-spacing:0px;word-spacing:0px;text-anchor:middle;fill:#ffffff;fill-rule:evenodd;stroke-width:22.721;stroke-linecap:round"
         transform="matrix(0.8428339,-0.09953505,0.04807376,1.1807961,0,0)"
         d="m 339.03257,211.67015 h -14.80475 l -3.84103,-11.22476 h -20.58494 l -3.84103,11.22476 h -14.43183 l 20.51036,-55.52712 h 16.48286 z m -22.11389,-21.40535 -6.82436,-19.91369 -6.82435,19.91369 z" /><path
         style="font-weight:bold;font-size:76.3731px;font-family:'Geeza Pro';-inkscape-font-specification:'Geeza Pro, Bold';text-align:center;letter-spacing:0px;word-spacing:0px;text-anchor:middle;fill:#ffffff;fill-rule:evenodd;stroke-width:22.721;stroke-linecap:round"
         d="m 273.54862,211.67015 h -14.24538 v -37.17968 l -10.29247,24.12764 h -9.88226 l -10.29247,-24.12764 v 37.17968 h -13.49954 v -55.52712 h 16.63203 l 12.49267,27.85679 12.45538,-27.85679 h 16.63204 z"
         transform="matrix(0.8428339,-0.09953505,0.04807376,1.1807961,0,0)"
         id="path6" /><path
         style="font-weight:bold;font-size:76.3731px;font-family:'Geeza Pro';-inkscape-font-specification:'Geeza Pro, Bold';text-align:center;letter-spacing:0px;word-spacing:0px;text-anchor:middle;fill:#ffffff;fill-rule:evenodd;stroke-width:22.721;stroke-linecap:round"
         d="m 204.14902,192.35313 h -28.45345 v -10.73997 h 28.45345 z"
         transform="matrix(0.8428339,-0.09953505,0.04807376,1.1807961,0,0)"
         id="path5" /><path
         id="path3"
         style="font-weight:bold;font-size:76.3731px;font-family:'Geeza Pro';-inkscape-font-specification:'Geeza Pro, Bold';text-align:center;letter-spacing:0px;word-spacing:0px;text-anchor:middle;fill:#ffffff;fill-rule:evenodd;stroke-width:22.721;stroke-linecap:round"
         transform="matrix(0.8428339,-0.09953505,0.04807376,1.1807961,0,0)"
         d="m 168.5356,173.67006 q 0,3.72915 -1.3052,7.30914 -1.30521,3.5427 -3.72916,5.96665 -3.31895,3.28166 -7.42102,4.95978 -4.06478,1.67812 -10.1433,1.67812 h -8.91268 v 18.0864 h -14.31996 v -55.52712 h 23.56827 q 5.2954,0 8.91268,0.93229 3.65457,0.89499 6.45144,2.72228 3.35624,2.2002 5.10894,5.63103 1.78999,3.43082 1.78999,8.24143 z m -14.80474,0.33562 q 0,-2.34937 -1.26792,-4.02749 -1.26791,-1.71541 -2.94603,-2.38665 -2.23749,-0.895 -4.36311,-0.96959 -2.12562,-0.11187 -5.66832,-0.11187 h -2.46124 v 16.63203 h 4.10207 q 3.65457,0 6.00394,-0.4475 2.38666,-0.44749 3.9902,-1.78999 1.37978,-1.19333 1.97645,-2.83416 0.63396,-1.67812 0.63396,-4.06478 z" /><path
         id="path1"
         style="font-weight:bold;font-size:76.3731px;font-family:'Geeza Pro';-inkscape-font-specification:'Geeza Pro, Bold';text-align:center;letter-spacing:0px;word-spacing:0px;text-anchor:middle;fill:#ffffff;fill-rule:evenodd;stroke-width:22.721;stroke-linecap:round"
         d="m 112.56098,173.67006 q 0,3.72915 -1.30521,7.30914 -1.3052,3.5427 -3.72915,5.96665 -3.31895,3.28166 -7.42102,4.95978 -4.06478,1.67812 -10.143303,1.67812 h -8.912681 v 18.0864 h -14.319956 v -55.52712 h 23.568261 q 5.2954,0 8.912681,0.93229 3.654568,0.89499 6.451438,2.72228 3.35624,2.2002 5.10894,5.63103 1.79,3.43082 1.79,8.24143 z m -14.804748,0.33562 q 0,-2.34937 -1.267913,-4.02749 -1.267913,-1.71541 -2.946033,-2.38665 -2.237493,-0.895 -4.363112,-0.96959 -2.125618,-0.11187 -5.668316,-0.11187 h -2.461242 v 16.63203 h 4.102071 q 3.654572,0 6.00394,-0.4475 2.386659,-0.44749 3.990196,-1.78999 1.379787,-1.19333 1.976452,-2.83416 0.633957,-1.67812 0.633957,-4.06478 z"
         transform="matrix(0.8428339,-0.09953505,0.04807376,1.1807961,0,0)" /><path
         style="font-weight:bold;font-size:76.3731px;font-family:'Geeza Pro';-inkscape-font-specification:'Geeza Pro, Bold';text-align:center;letter-spacing:0px;word-spacing:0px;text-anchor:middle;fill:#ffffff;fill-rule:evenodd;stroke-width:22.721;stroke-linecap:round"
         d="m 53.341991,191.57 q 0,10.29247 -6.264981,15.77433 -6.264981,5.48186 -18.459319,5.48186 -12.194338,0 -18.459319,-5.48186 -6.2276889,-5.48186 -6.2276889,-15.73703 v -35.46427 h 14.3945389 v 34.64385 q 0,5.78019 2.423951,8.61435 2.423951,2.83416 7.868518,2.83416 5.369984,0 7.831226,-2.72229 2.498534,-2.72228 2.498534,-8.72622 v -34.64385 h 14.39454 z"
         transform="matrix(0.8428339,-0.09953505,0.04807376,1.1807961,0,0)"
         id="text3" /></g></g></svg>
