<?xml version="1.0" encoding="UTF-8" standalone="no"?>
<!-- Created with Inkscape (http://www.inkscape.org/) -->

<svg
   width="210mm"
   height="297mm"
   viewBox="0 0 210 297"
   version="1.1"
   id="svg1"
   xml:space="preserve"
   sodipodi:docname="kaffeeeeeee.svg"
   inkscape:version="1.4 (e7c3feb1, 2024-10-09)"
   xmlns:inkscape="http://www.inkscape.org/namespaces/inkscape"
   xmlns:sodipodi="http://sodipodi.sourceforge.net/DTD/sodipodi-0.dtd"
   xmlns="http://www.w3.org/2000/svg"
   xmlns:svg="http://www.w3.org/2000/svg"><sodipodi:namedview
     id="namedview1"
     pagecolor="#ffffff"
     bordercolor="#000000"
     borderopacity="0.25"
     inkscape:showpageshadow="2"
     inkscape:pageopacity="0.0"
     inkscape:pagecheckerboard="0"
     inkscape:deskcolor="#d1d1d1"
     inkscape:document-units="mm"
     inkscape:window-width="1712"
     inkscape:window-height="1045"
     inkscape:window-x="0"
     inkscape:window-y="39"
     inkscape:window-maximized="1"
     inkscape:current-layer="layer1" /><defs
     id="defs1"><marker
       id="DistanceX"
       orient="auto"
       refX="0.0"
       refY="0.0"
       style="overflow:visible"><path
         d="M 3,-3 L -3,3 M 0,-5 L  0,5"
         style="stroke:#000000; stroke-width:0.5"
         id="path1" /></marker><pattern
       id="Hatch"
       patternUnits="userSpaceOnUse"
       width="8"
       height="8"
       x="0"
       y="0"><path
         d="M8 4 l-4,4"
         stroke="#000000"
         stroke-width="0.25"
         linecap="square"
         id="path2" /><path
         d="M6 2 l-4,4"
         stroke="#000000"
         stroke-width="0.25"
         linecap="square"
         id="path3" /><path
         d="M4 0 l-4,4"
         stroke="#000000"
         stroke-width="0.25"
         linecap="square"
         id="path4" /></pattern><symbol
       id="*MODEL_SPACE" /><symbol
       id="*PAPER_SPACE" /></defs><g
     inkscape:label="Layer 1"
     inkscape:groupmode="layer"
     id="layer1"><path
       d="m 199.57891,147.10026 c 7.37074,-6.07185 11.03056,-15.55539 9.64962,-25.00463 -1.38093,-9.44924 -7.60164,-17.48881 -16.40172,-21.19741 v 0 c -31.66559,-13.34475 -77.25729,-5.923601 -87.78723,25.75345 v 0 c -8.302958,-29.450066 -56.121635,-39.0982 -87.78723,-25.75345 v 0 c -8.8000814,3.7086 -15.0207874,11.74817 -16.40172454,21.19741 -1.38093978,9.44924 2.27888794,18.93278 9.64962654,25.00463 v -4e-5 l 54.539356,44.92837 v 0 9.6229 0 h 39.999972 v 0 h 39.99997 v 0 -9.6229 c 19.66757,-13.33003 36.76525,-29.25572 54.53936,-44.92837 z"
       style="fill:none;stroke:#000000;stroke-width:0.264583"
       id="path47"
       sodipodi:nodetypes="csccccccsccccccccccccc" /></g></svg>
