<?xml version="1.0" encoding="UTF-8" standalone="no"?>
<!-- Created with Inkscape (http://www.inkscape.org/) -->

<svg
   width="210mm"
   height="297mm"
   viewBox="0 0 210 297"
   version="1.1"
   id="svg1"
   xml:space="preserve"
   inkscape:version="1.4 (e7c3feb1, 2024-10-09)"
   sodipodi:docname="örebro kommun.svg"
   xmlns:inkscape="http://www.inkscape.org/namespaces/inkscape"
   xmlns:sodipodi="http://sodipodi.sourceforge.net/DTD/sodipodi-0.dtd"
   xmlns="http://www.w3.org/2000/svg"
   xmlns:svg="http://www.w3.org/2000/svg"><sodipodi:namedview
     id="namedview1"
     pagecolor="#ffffff"
     bordercolor="#000000"
     borderopacity="0.25"
     inkscape:showpageshadow="2"
     inkscape:pageopacity="0.0"
     inkscape:pagecheckerboard="0"
     inkscape:deskcolor="#d1d1d1"
     inkscape:document-units="mm"
     inkscape:window-width="1712"
     inkscape:window-height="1045"
     inkscape:window-x="0"
     inkscape:window-y="39"
     inkscape:window-maximized="1"
     inkscape:current-layer="layer1" /><defs
     id="defs1" /><g
     inkscape:label="Layer 1"
     inkscape:groupmode="layer"
     id="layer1"><path
       style="fill:#ffffff"
       d="m 96.927847,188.55993 c -1.66968,-0.25988 -1.76552,-0.33047 -1.39319,-1.02617 0.36392,-0.67999 0.38836,-11.90727 0.028,-12.85513 -0.25306,-0.6656 -0.23531,-0.67868 0.92134,-0.67868 h 1.17937 l 0.0708,6.39424 0.0709,6.39424 0.74181,0.24713 c 1.07045,0.35661 2.462893,0.0132 3.422323,-0.84407 0.74141,-0.66244 0.84395,-0.93112 0.92871,-2.43321 0.0761,-1.34837 -0.0122,-1.85972 -0.43819,-2.53826 -0.61182,-0.97456 -1.82459,-1.4067 -3.133293,-1.11649 -0.99322,0.22026 -1.01051,0.18616 -0.41594,-0.82037 1.05113,-1.77943 4.296393,-1.00529 5.614073,1.3392 0.86271,1.53499 0.72683,4.20382 -0.29245,5.74405 -1.23578,1.86739 -4.02256,2.70428 -7.304243,2.19352 z m -33.141164,-0.86779 c -5.555741,-2.88986 -4.935369,-10.88038 1.021523,-13.15742 2.72584,-1.04196 5.985447,-0.51161 8.055696,1.3107 2.468959,2.17326 3.152074,5.59154 1.705946,8.53648 -1.365796,2.78134 -3.764305,4.17014 -7.202028,4.17014 -1.659675,0 -2.158059,-0.11968 -3.581137,-0.8599 z m 6.435261,-1.29973 c 1.536679,-0.76945 2.414152,-2.31545 2.535765,-4.4677 0.05586,-0.98849 -0.04267,-2.22697 -0.219882,-2.76392 -0.413286,-1.25227 -1.741122,-2.76002 -2.832123,-3.21587 -1.103149,-0.46093 -3.038256,-0.45724 -4.122171,0.008 -1.037587,0.44522 -2.438682,1.88283 -2.819545,2.89304 -0.444149,1.17807 -0.330944,3.88174 0.212632,5.07828 0.56854,1.25149 2.129904,2.70281 3.14943,2.92746 0.397513,0.0876 0.841814,0.19245 0.987335,0.23301 0.534923,0.1491 2.144007,-0.20918 3.108559,-0.69216 z m 16.370417,1.58576 c -3.119778,-1.54425 -3.652054,-6.17628 -0.994719,-8.65635 1.392218,-1.29935 4.473185,-1.53175 6.107798,-0.46071 0.782419,0.51266 1.587357,2.00112 1.842497,3.40707 l 0.18005,0.99219 h -3.848447 c -4.265904,0 -4.162127,-0.055 -3.334262,1.76839 0.858966,1.89193 2.937217,2.56001 5.388916,1.73232 0.827877,-0.27949 1.505233,-0.45572 1.505233,-0.39162 0,0.50042 -1.045214,1.6893 -1.679569,1.91044 -1.370644,0.47781 -3.889784,0.33072 -5.167497,-0.30173 z m 4.730398,-6.7142 c 0,-0.2249 -0.292244,-0.70115 -0.649432,-1.05834 -1.018263,-1.01826 -3.114164,-0.81795 -4.038508,0.38598 -0.718706,0.93609 -0.426766,1.08126 2.174398,1.08126 2.090727,0 2.513542,-0.0688 2.513542,-0.4089 z m 24.563891,6.52432 c -4.0614,-2.57566 -2.43661,-9.02821 2.39014,-9.492 2.00052,-0.19222 3.11619,0.11972 4.32304,1.20872 1.29346,1.16715 1.79585,2.25602 1.79585,3.89229 0,3.0026 -2.34898,5.15474 -5.6262,5.15474 -1.39586,0 -1.88135,-0.12862 -2.88283,-0.76375 z m 5.38599,-1.58947 c 1.81668,-2.03303 0.94418,-5.66742 -1.52418,-6.34897 -1.76382,-0.48701 -3.36503,0.45189 -3.94315,2.31217 -0.49845,1.60391 0.62268,4.19613 2.0865,4.8243 1.03138,0.44259 2.61028,0.0748 3.38083,-0.7875 z m -43.966248,1.40995 c 0.353342,-0.92936 0.330713,-7.68697 -0.02799,-8.35721 -0.350282,-0.6545 -0.366459,-0.6409 1.013624,-0.85229 1.086581,-0.16643 1.124479,-0.14829 1.124479,0.53847 v 0.7107 l 0.623518,-0.58576 c 0.342935,-0.32217 1.05731,-0.65616 1.5875,-0.7422 l 0.963981,-0.15643 v 1.03982 c 0,1.02511 -0.01263,1.03835 -0.892422,0.93564 -1.753708,-0.20474 -2.45858,1.4761 -2.221789,5.29807 0.06556,1.05811 0.210496,2.13219 0.322092,2.38685 0.179626,0.40991 0.03348,0.46302 -1.274066,0.46302 -1.476101,0 -1.476816,-4e-4 -1.218932,-0.67868 z m 29.617478,0.16691 c 0.153,-0.28589 0.27389,-2.22045 0.27389,-4.38302 0,-2.16257 -0.12089,-4.09713 -0.27389,-4.38302 -0.24205,-0.45228 -0.18305,-0.51177 0.50753,-0.51177 0.42978,0 0.96975,-0.0723 1.19993,-0.1606 0.3149,-0.12084 0.41852,0.008 0.41852,0.52119 v 0.68179 l 0.98104,-0.66575 c 0.569,-0.38613 1.26353,-0.63282 1.65364,-0.58734 0.56292,0.0656 0.68559,0.23333 0.7522,1.02829 l 0.0796,0.94987 -1.10278,-0.0238 c -0.91494,-0.0198 -1.1989,0.10338 -1.66709,0.72301 -0.49489,0.65496 -0.56432,1.09749 -0.56432,3.59691 0,2.02652 0.10492,2.97663 0.36312,3.28805 0.33121,0.39949 0.21993,0.43799 -1.26608,0.43799 -1.52876,0 -1.61232,-0.0316 -1.35531,-0.51177 z m -41.996388,-15.67059 c -0.574566,-0.57457 -0.388624,-1.52828 0.364901,-1.87161 0.612328,-0.27899 0.751044,-0.24329 1.197663,0.30826 0.443722,0.54797 0.46038,0.69155 0.137035,1.18111 -0.435962,0.66008 -1.240764,0.84108 -1.699599,0.38224 z m 3.800989,-0.26271 c -0.431273,-0.61573 -0.188616,-1.45064 0.498213,-1.71421 0.586918,-0.22522 1.458576,0.4023 1.458576,1.05005 0,1.23524 -1.257771,1.66215 -1.956789,0.66416 z m 7.91398,-14.65746 c -8.725668,-5.45272 -16.522894,-10.37566 -17.327168,-10.93985 -3.048417,-2.13847 -5.068744,-4.8057 -6.287195,-8.30036 -1.326391,-3.80424 -1.382141,-5.05655 -1.387685,-31.17188 -0.0028,-13.327778 0.07364,-28.180818 0.16994,-33.006768 l 0.175084,-8.774438 h 0.618666 c 0.602672,0 0.618666,-0.06156 0.618666,-2.38125 v -2.38125 h 1.058333 1.058334 v -5.165452 -5.165453 l -2.139011,-2.928856 -2.13901,-2.928857 0.03088,-4.099061 c 0.02947,-3.911444 0.0063,-4.105497 -0.506823,-4.239675 -0.483192,-0.126357 -0.537708,-0.352084 -0.537708,-2.226422 v -2.085807 h 1.965973 c 1.828424,0 1.973995,0.04165 2.080635,0.595312 l 0.114662,0.595313 0.03603,-0.595313 c 0.03567,-0.589301 0.0761,-0.595312 4.004781,-0.595312 h 3.96875 v 2.116666 c 0,2.081389 -0.01102,2.116667 -0.661458,2.116667 -0.650434,0 -0.661458,0.03528 -0.661458,2.116667 v 2.116666 h 1.322916 1.322918 v 1.455209 1.455208 h 1.5875 1.5875 v -1.455208 -1.455209 h 1.322917 1.322916 v -2.009145 c 0,-1.78663 -0.05861,-2.024471 -0.529166,-2.147525 -0.472715,-0.123618 -0.529167,-0.360896 -0.529167,-2.224189 v -2.085807 h 1.965973 c 1.828424,0 1.973995,0.04165 2.080635,0.595312 l 0.114662,0.595313 0.03603,-0.595313 c 0.03567,-0.589301 0.0761,-0.595312 4.004781,-0.595312 h 3.96875 v 2.116666 c 0,1.940278 -0.0441,2.116667 -0.529166,2.116667 -0.48507,0 -0.529167,0.176389 -0.529167,2.116667 v 2.116666 h 1.190625 1.190625 v 1.455209 1.455208 h 1.587499 1.5875 v -1.455208 -1.455209 h 1.190625 1.190625 v -2.116666 c 0,-1.940278 -0.0441,-2.116667 -0.529167,-2.116667 -0.485069,0 -0.529166,-0.176389 -0.529166,-2.116667 v -2.116666 h 1.9668 c 1.942492,0 1.968163,0.009 2.077024,0.727604 l 0.110223,0.727604 0.03964,-0.727604 0.03964,-0.727604 h 3.968748 3.96875 v 2.248958 c 0,2.072569 -0.0415,2.248958 -0.52916,2.248958 -0.48213,0 -0.52917,0.176389 -0.52917,1.984375 v 1.984375 h 1.19062 1.19063 v 1.455209 1.455208 h 1.719788 1.71979 v -1.455208 -1.455209 h 1.33405 1.33404 l -0.0773,-2.050521 c -0.0715,-1.897653 -0.12166,-2.056824 -0.67259,-2.135068 -0.56021,-0.07956 -0.59531,-0.208275 -0.59531,-2.182813 v -2.098264 h 1.96597 c 1.82843,0 1.974,0.04165 2.08064,0.595312 l 0.11466,0.595313 0.036,-0.595313 c 0.0356,-0.589054 0.0774,-0.595312 3.97016,-0.595312 h 3.93413 l 0.164,0.992187 c 0.0902,0.545703 0.16531,1.498203 0.16691,2.116667 0.003,1.023832 -0.0563,1.124479 -0.65854,1.124479 -0.65044,0 -0.66146,0.03528 -0.66146,2.116667 v 2.116666 h 1.19062 1.19063 v 1.455209 1.455208 h 1.5875 1.5875 v -1.322917 -1.322916 h 1.33362 1.33361 l -0.0768,-2.182813 c -0.0717,-2.035071 -0.11714,-2.188535 -0.67216,-2.26736 -0.56021,-0.07956 -0.59531,-0.208275 -0.59531,-2.182813 v -2.098264 h 1.96597 c 1.82842,0 1.97399,0.04165 2.08063,0.595312 l 0.11467,0.595313 0.036,-0.595313 c 0.0339,-0.560716 0.15028,-0.595312 2.002,-0.595312 1.82843,0 1.974,0.04165 2.08064,0.595312 l 0.11466,0.595313 0.036,-0.595313 c 0.0337,-0.557233 0.1545,-0.595312 1.88812,-0.595312 h 1.85208 v 2.116666 c 0,1.940278 -0.0441,2.116667 -0.52917,2.116667 -0.5073,0 -0.52932,0.177636 -0.53291,4.299479 l -0.004,4.299479 -1.98063,3.003895 -1.98063,3.003896 v 4.99975 4.999751 h 0.79375 0.79375 v 2.513542 2.513541 h 0.92604 0.92604 l 0.0661,32.609895 c 0.0755,37.207348 0.0846,36.165738 -0.33289,38.176568 -0.90719,4.36993 -3.95755,8.39178 -8.86138,11.68358 -0.87312,0.58611 -8.0764,5.03014 -16.00729,9.87563 -7.93088,4.8455 -14.659278,8.96458 -14.951996,9.15353 -0.482351,0.31136 -2.018451,-0.58522 -16.397058,-9.57049 z m 31.276859,-1.62021 c 8.26164,-5.04616 15.73926,-9.77889 16.61693,-10.51719 3.09463,-2.60321 4.93534,-5.15869 6.01725,-8.35382 0.58187,-1.71842 0.5824,-1.74028 0.66301,-27.37483 l 0.0807,-25.655038 -0.60648,0.55105 c -0.33356,0.30307 -0.93389,0.62847 -1.33407,0.7231 l -0.72761,0.17206 v 12.43887 c 0,13.474528 0.0279,13.759928 1.43311,14.680678 0.86915,0.56949 0.8581,0.78236 -0.0898,1.7303 -0.68328,0.68328 -0.95874,0.7734 -2.36402,0.7734 -1.95752,0 -2.61745,-0.23933 -3.73126,-1.35314 l -0.87006,-0.87006 0.11475,2.63295 c 0.16403,3.7635 1.28043,5.63726 3.63987,6.10915 0.68458,0.13692 0.79585,0.25886 0.66192,0.72544 -0.50839,1.77111 -2.42886,3.06343 -4.56229,3.07005 -1.5754,0.005 -2.69106,-0.46462 -3.95562,-1.66467 -0.77852,-0.73881 -0.85989,-0.76465 -0.85989,-0.27301 0,0.73666 1.69254,2.90428 2.65729,3.40317 0.43026,0.22249 0.78229,0.49794 0.78229,0.6121 0,0.45842 -1.67873,1.88459 -2.56112,2.1758 -1.49317,0.49279 -3.38576,0.18804 -4.5269,-0.72895 -1.20566,-0.96883 -2.96614,-4.24678 -2.96614,-5.52283 0,-0.81239 -0.0764,-0.90828 -0.72761,-0.91348 -0.93208,-0.007 -2.70285,-0.81875 -3.33245,-1.52681 -0.76691,-0.86249 -1.20738,-2.41732 -1.22,-4.30655 l -0.0116,-1.73812 -2.03451,-0.90771 c -1.11898,-0.49924 -2.13101,-0.9474 -2.24896,-0.9959 -0.11795,-0.0485 -0.21445,0.3098 -0.21445,0.79625 0,0.61322 0.17117,0.99134 0.55817,1.23302 0.43494,0.27163 0.52402,0.51933 0.40349,1.12198 -0.14997,0.74984 -0.12301,0.7734 0.88505,0.7734 0.9708,0 1.0508,0.059 1.20672,0.89015 0.0919,0.48958 0.12712,1.12552 0.0784,1.4132 -0.13109,0.77382 3.46407,4.66959 4.80405,5.20575 0.97448,0.38991 1.0314,0.4691 0.79122,1.10083 -0.22981,0.60446 -0.0974,0.87906 1.18231,2.45153 0.79261,0.97396 2.40609,2.64787 3.58552,3.71981 l 2.1444,1.94898 0.90286,-1.05479 c 1.16638,-1.36266 2.1893,-1.81228 4.60124,-2.02247 1.78432,-0.1555 2.01687,-0.11852 2.57968,0.41021 0.80275,0.75415 0.78107,0.92043 -0.18515,1.42009 -0.44206,0.22859 -0.99931,0.82575 -1.23835,1.32702 -0.23904,0.50128 -0.6756,0.98789 -0.97012,1.08137 -0.46365,0.14716 -0.39513,0.23697 0.51075,0.66942 0.57543,0.27471 1.35909,0.94358 1.74145,1.48637 0.90329,1.28227 1.43856,3.63046 1.05427,4.62492 -0.34518,0.89325 -0.49693,0.89907 -1.72431,0.0661 -0.53609,-0.3638 -1.07935,-0.66146 -1.20724,-0.66146 -0.1279,0 -0.57706,-0.2899 -0.99815,-0.64422 -0.42108,-0.35432 -1.25917,-0.8417 -1.8624,-1.08307 -0.60324,-0.24136 -1.16884,-0.66584 -1.2569,-0.94328 -0.29284,-0.92267 -0.60543,-0.52064 -0.45679,0.58751 0.10949,0.8163 0.0444,1.14906 -0.25779,1.31818 -0.29383,0.16443 -0.37505,0.53471 -0.29735,1.35545 0.10205,1.07796 0.0459,1.18189 -1.238,2.28915 -1.14311,0.98589 -1.43204,1.12023 -1.92559,0.89535 -0.85874,-0.39127 -1.9158,-4.01922 -1.2847,-4.40926 0.12126,-0.0749 0.16663,-0.5031 0.10082,-0.95147 -0.11299,-0.76984 -0.15164,-0.79424 -0.69464,-0.43846 -0.48937,0.32065 -0.67786,0.32285 -1.26586,0.0148 -0.5886,-0.3084 -0.8807,-0.30439 -1.97322,0.0271 -0.7053,0.21398 -1.31213,0.39034 -1.34851,0.39192 -0.0364,0.002 -0.0661,-0.47565 -0.0661,-1.06049 0,-0.91771 0.18669,-1.26032 1.36301,-2.50139 1.01713,-1.07312 1.47033,-1.38306 1.78594,-1.22136 0.23261,0.11917 0.57281,0.16296 0.75601,0.0973 0.30199,-0.10823 -1.14609,-1.5727 -4.65278,-4.70544 -0.65581,-0.58587 -1.22081,-0.91037 -1.32292,-0.7598 -0.26352,0.38862 -1.44266,1.1582 -1.77457,1.1582 -0.15839,0 -0.43548,-0.56555 -0.61575,-1.25677 -0.39825,-1.52701 -0.60099,-1.79975 -2.28582,-3.07518 -0.7276,-0.55081 -1.63441,-1.37902 -2.015133,-1.84049 -0.65043,-0.78837 -0.79417,-0.83766 -2.38125,-0.81653 l -1.68903,0.0225 -0.0817,0.82056 c -0.10887,1.09415 0.59651,2.39487 1.40939,2.59889 0.54371,0.13647 0.65664,0.32514 0.65664,1.09709 0,0.51275 -0.25394,1.34316 -0.56431,1.84535 -0.52601,0.8511 -0.54359,1.0418 -0.25894,2.80936 0.54524,3.38566 2.48507,6.48139 4.137803,6.60343 0.7534,0.0556 0.77818,0.0279 1.72556,-1.92903 0.29512,-0.60962 1.72969,-0.41081 2.77191,0.38412 1.22966,0.93791 1.71298,1.95547 1.71298,3.60639 0,1.22927 -0.0977,1.46306 -0.94488,2.2621 -0.80955,0.76351 -0.86771,0.89114 -0.40608,0.89114 0.80858,0 2.36137,1.504 2.65656,2.57308 0.33875,1.22688 -0.11192,3.43276 -0.87151,4.26569 -1.75178,1.92091 -5.17056,2.35762 -7.913273,1.01082 -0.83934,-0.41216 -2.11926,-1.32716 -2.84428,-2.03335 -0.72501,-0.70618 -1.3182,-1.23557 -1.3182,-1.1764 0,0.0592 0.29765,0.78062 0.66145,1.60324 1.13084,2.55702 0.82997,4.01998 -1.31581,6.39812 -1.94778,2.15869 -1.943021,2.15838 -3.917574,0.2535 -0.940642,-0.90745 -1.914799,-1.97275 -2.164792,-2.36733 -0.64642,-1.02027 -0.601565,-2.76307 0.10679,-4.14924 l 0.594051,-1.16249 -1.20071,0.98389 c -1.720695,1.40998 -3.470053,2.00255 -5.911878,2.00255 -3.202658,0 -5.046441,-1.21465 -5.532447,-3.64468 -0.351333,-1.75667 1.286093,-4.10792 3.115594,-4.47382 l 0.795488,-0.1591 -0.791696,-0.50126 c -2.426084,-1.53609 -2.034417,-5.31635 0.67022,-6.46878 1.504934,-0.64125 1.845534,-0.50354 2.045036,0.82684 0.146657,0.97798 0.296126,1.21916 0.840176,1.35571 0.99977,0.25093 2.488073,-0.57075 3.568151,-1.96994 1.711331,-2.21694 1.882166,-2.747 1.781598,-5.52786 -0.08302,-2.2956 -0.145385,-2.54778 -0.751985,-3.04071 -0.812499,-0.66024 -0.735593,-1.19821 0.295328,-2.06589 0.776796,-0.6538 1.491048,-2.63425 1.149406,-3.18704 -0.08418,-0.1362 -0.725667,-0.24764 -1.425535,-0.24764 -1.137977,0 -1.395594,0.11887 -2.437073,1.12448 -0.640521,0.61846 -1.72775,1.57689 -2.416063,2.12984 -0.688314,0.55294 -1.251479,1.17027 -1.251479,1.37183 0,0.20157 -0.116624,0.67323 -0.259164,1.04814 -0.247943,0.65214 -0.296556,0.66639 -1.122841,0.32924 l -0.863677,-0.35242 -2.779763,2.36803 c -3.627392,3.09012 -3.487983,2.92479 -2.316742,2.74758 0.728371,-0.1102 0.992187,-0.0557 0.992187,0.20509 0,0.19537 0.416719,0.85399 0.926042,1.46361 1.020234,1.22114 1.034527,1.26771 0.677343,2.20718 -0.230638,0.60662 -0.325049,0.63697 -1.30002,0.41791 -0.772612,-0.1736 -1.242026,-0.13728 -1.770678,0.13699 -0.514282,0.26681 -0.90841,0.30133 -1.382508,0.12108 -0.865978,-0.32925 -0.977371,-0.17716 -0.620353,0.84698 0.362934,1.04112 0.381067,2.27013 0.03979,2.69717 -1.604824,2.00814 -1.973757,2.32742 -2.601696,2.25156 -0.363784,-0.0439 -0.792496,-0.31753 -0.952695,-0.60794 -0.160198,-0.29042 -0.512218,-0.86226 -0.782267,-1.27076 -0.346227,-0.52374 -0.442427,-0.99215 -0.326268,-1.58864 0.179982,-0.92423 0.190174,-3.41328 0.0147,-3.58875 -0.06022,-0.0602 -0.589226,0.32393 -1.175574,0.85366 -0.586349,0.52973 -1.192752,0.96314 -1.347563,0.96314 -0.154811,0 -0.671722,0.29766 -1.148691,0.66146 -0.476969,0.3638 -0.986353,0.66146 -1.131964,0.66146 -0.145612,0 -0.468921,0.22561 -0.718464,0.50135 -0.249543,0.27574 -0.749233,0.55784 -1.110423,0.62688 -0.517794,0.099 -0.738317,-0.0323 -1.042501,-0.6205 -0.544358,-1.05267 -0.480026,-2.15082 0.20952,-3.57654 0.520204,-1.07558 0.828986,-1.34268 2.447397,-2.11703 1.842013,-0.88134 1.847451,-0.88708 1.000017,-1.05667 -0.470019,-0.0941 -0.917648,-0.37714 -0.998332,-0.63135 -0.08045,-0.25346 -0.618492,-0.89776 -1.195656,-1.43177 -0.907529,-0.83968 -1.006985,-1.03883 -0.735719,-1.4732 0.510155,-0.81689 1.411439,-1.07366 3.13592,-0.89342 1.705881,0.1783 2.842435,0.85552 4.275135,2.54733 l 0.718865,0.84888 1.027599,-1.18071 c 0.611694,-0.70283 0.97944,-1.36486 0.90861,-1.63572 -0.09045,-0.34587 0.0071,-0.42203 0.406863,-0.3175 0.38548,0.10081 1.134061,-0.40362 2.804296,-1.88965 2.10705,-1.87467 2.278444,-2.10288 2.278444,-3.03376 0,-0.87692 0.106014,-1.0505 0.822946,-1.34746 0.504241,-0.20887 1.349585,-1.06516 2.182812,-2.21108 1.25277,-1.72291 1.352742,-1.96948 1.269399,-3.13081 l -0.09047,-1.2606 h 0.950363 c 0.726885,0 0.951496,-0.10888 0.955178,-0.46303 0.0026,-0.25466 0.363566,-0.9925 0.802041,-1.63966 0.438475,-0.64715 0.733964,-1.34149 0.656643,-1.54299 -0.07732,-0.20149 -0.140583,-0.47997 -0.140583,-0.61884 0,-0.13886 -0.443238,0.0487 -0.984974,0.41683 -0.541735,0.36812 -1.553767,0.85823 -2.248958,1.08913 l -1.263983,0.41983 -0.02013,1.89697 c -0.02799,2.6373 -0.560494,3.88367 -2.198365,5.14542 -0.477579,0.36791 -1.13548,0.588 -1.75763,0.588 -1.075271,0 -1.315543,0.29075 -1.315543,1.59192 0,1.1608 -0.411667,1.99617 -1.646325,3.34078 -2.087946,2.27389 -4.9649,2.88353 -7.260117,1.53844 -0.631249,-0.36994 -1.147725,-0.77738 -1.147725,-0.90542 0,-0.12805 0.506016,-0.66578 1.124479,-1.19495 1.654521,-1.41565 2.579688,-2.91963 2.579688,-4.19362 v -1.06615 l -0.952598,1.1129 c -0.523928,0.61209 -1.28758,1.28612 -1.697003,1.49784 -1.102886,0.57033 -3.463343,0.77879 -4.593816,0.4057 -1.049903,-0.3465 -2.179679,-1.62401 -2.323356,-2.62716 -0.07966,-0.55618 0.08374,-0.6891 1.362088,-1.10793 0.798935,-0.26177 1.661039,-0.73334 1.915789,-1.04794 0.736318,-0.90931 1.261813,-3.09554 1.261813,-5.24954 v -1.98826 l -0.859897,0.81604 c -1.263793,1.19932 -2.379032,1.66902 -3.962885,1.66902 -1.479498,0 -2.365805,-0.41794 -2.865211,-1.35109 -0.235706,-0.44042 -0.167956,-0.62128 0.400114,-1.06812 1.585043,-1.2468 1.592629,-1.30183 1.672528,-12.13287 0.04026,-5.457028 -0.01928,-10.993438 -0.132292,-12.303128 -0.187043,-2.16755 -0.257082,-2.38859 -0.780453,-2.46313 -0.658163,-0.0937 -1.938572,-1.27597 -1.938572,-1.78995 0,-0.18946 0.350967,-0.72873 0.779927,-1.19838 0.509332,-0.55764 1.069091,-1.75448 1.613374,-3.44961 1.08484,-3.37865 2.007476,-4.76196 3.757884,-5.63423 1.023449,-0.51001 1.770471,-0.67824 3.011666,-0.67824 2.002386,0 2.863815,0.3002 4.032479,1.40529 2.43612,2.3036 2.504766,5.76629 0.155212,7.82922 -0.877497,0.77045 -0.877766,0.77145 -0.339338,1.25838 0.29637,0.26803 0.757296,0.91531 1.02428,1.43841 0.478017,0.93658 2.163115,2.62079 2.622173,2.62079 0.129292,0 0.571634,0.27915 0.982981,0.62033 0.411348,0.34119 1.321119,0.83654 2.021714,1.10079 0.700595,0.26425 1.699232,0.81853 2.219194,1.23175 0.519961,0.41321 1.070684,0.75129 1.223827,0.75129 0.153144,0 1.059507,0.46368 2.01414,1.03039 3.110582,1.84658 5.146955,1.61777 3.06631,-0.34453 -0.799703,-0.75422 -0.955143,-1.06881 -0.885687,-1.7925 0.07729,-0.80527 0.16609,-0.88451 1.075641,-0.9598 1.127378,-0.0933 1.374546,-0.42432 1.629116,-2.18163 0.169715,-1.17156 0.150251,-1.21609 -0.693785,-1.5875 -1.23049,-0.54147 -1.323847,-1.72565 -0.243545,-3.08922 0.434469,-0.5484 1.208161,-2.05948 1.719314,-3.35796 0.860985,-2.18716 0.901409,-2.41495 0.549371,-3.09572 -0.208999,-0.40416 -0.379998,-1.20069 -0.379998,-1.77008 v -1.03525 l 1.738405,-0.13954 c 1.863928,-0.14962 2.99283,-0.63184 6.979083,-2.98119 2.17156,-1.27984 2.29461,-1.31734 4.32239,-1.31734 1.92291,0 2.134055,0.0545 2.682565,0.69216 0.53376,0.62053 0.82572,0.70478 2.82136,0.81421 1.56558,0.0858 2.54973,0.28916 3.31719,0.6853 1.26394,0.65242 2.48068,1.98821 2.48068,2.72342 0,0.67495 0.066,0.65696 1.44126,-0.39281 1.55591,-1.18765 2.78847,-1.56617 4.60605,-1.41453 2.9901,0.24948 3.60796,1.08568 1.74527,2.36202 -1.30715,0.89567 -2.08268,2.4443 -2.08402,4.16152 -10e-4,1.39146 0.0353,1.46134 1.37859,2.64583 0.96097,0.84739 1.37968,1.41451 1.37961,1.86864 -9e-5,0.60437 0.0316,0.62029 0.43393,0.21798 0.40232,-0.40232 0.34195,-0.54182 -0.8263,-1.90927 -1.63025,-1.90823 -1.82891,-3.13403 -0.85326,-5.26512 0.94861,-2.07204 2.28334,-2.91899 4.79354,-3.04174 3.50923,-0.1716 5.59681,1.55967 7.14422,5.92483 0.40913,1.15411 1.17708,2.74576 1.70655,3.53699 l 0.96268,1.4386 0.0702,-7.918 c 0.0386,-4.3549 0.0126,-8.06813 -0.0578,-8.25162 -0.1022,-0.26633 -7.92099,-0.33362 -38.765496,-0.33362 h -38.63747 l 2.21e-4,30.22864 c 2.15e-4,29.373068 0.105882,34.041378 0.848923,37.504688 0.702925,3.27633 2.290384,6.23628 4.507464,8.40454 0.964549,0.94331 33.006873,21.42621 33.59723,21.47687 0.105809,0.009 6.951903,-4.11217 15.213548,-9.15832 z m -32.898667,-71.589228 c -0.385338,-0.76399 -0.833828,-1.47654 -0.996645,-1.58345 -0.162816,-0.10691 -1.099702,-0.19621 -2.081967,-0.19844 l -1.785938,-0.004 v -0.76933 c 0,-0.42314 0.314405,-1.37534 0.698677,-2.116 l 0.698676,-1.34667 -0.859487,-1.61256 c -1.066607,-2.00116 -0.906364,-2.22523 1.591383,-2.22523 h 1.836726 l 0.966014,-1.52136 c 0.531309,-0.83674 1.05386,-1.52135 1.161226,-1.52135 0.164632,0 1.452081,1.38548 2.397164,2.57969 0.143954,0.1819 0.822587,0.33235 1.508074,0.33434 1.885261,0.005 2.436963,0.22193 2.436963,0.95617 0,0.66594 -0.959466,2.91663 -1.344906,3.15485 -0.12382,0.0765 0.114819,0.70008 0.530309,1.38569 1.204443,1.98746 1.240373,2.33879 0.259253,2.53502 -0.458545,0.0917 -1.411879,0.16674 -2.118521,0.16674 -1.1465,0 -1.302503,0.0705 -1.449236,0.65515 -0.165208,0.65825 -2.003128,2.51985 -2.487787,2.51985 -0.14265,0 -0.57464,-0.62508 -0.959978,-1.38906 z m 2.259994,-3.29888 c 0.228844,-0.17727 0.922097,-0.3261 1.54056,-0.33073 0.618464,-0.005 1.12448,-0.0428 1.12448,-0.0848 0,-0.042 -0.232915,-0.5332 -0.517589,-1.09157 -0.51373,-1.00765 -0.51373,-1.02278 0,-2.02978 0.284674,-0.558 0.517589,-1.07883 0.517589,-1.15739 0,-0.0786 -0.565547,-0.14317 -1.256771,-0.14359 -1.099004,-6.6e-4 -1.322956,-0.0995 -1.783995,-0.78765 l -0.527224,-0.7869 -0.616378,0.78759 c -0.425637,0.54386 -0.937965,0.83901 -1.655588,0.95376 -1.020308,0.16315 -1.298587,0.43618 -0.774628,0.76 0.38569,0.23837 0.306327,1.74626 -0.132291,2.51354 -0.564261,0.98707 -0.50657,1.05819 0.859895,1.06001 1.137935,0.001 1.302642,0.0822 1.741881,0.85368 0.458057,0.80449 0.501252,0.82284 0.774544,0.32906 0.159188,-0.28763 0.47667,-0.668 0.705515,-0.84527 z m 25.796813,66.250368 c 0.36988,-0.27046 0.43677,-0.54123 0.29413,-1.19063 -0.16643,-0.75776 -0.28027,-0.8407 -1.15578,-0.84203 -1.5068,-0.002 -2.836303,-0.46762 -4.106733,-1.43735 l -1.16364,-0.88823 0.29752,0.8328 c 0.40975,1.14694 2.56778,3.26275 3.643743,3.57244 1.25237,0.36047 1.64503,0.35205 2.19076,-0.047 z m -18.298132,-0.19439 c 1.236014,-0.34325 2.630826,-1.70762 3.500757,-3.42434 0.363789,-0.7179 0.661434,-1.35701 0.661434,-1.42023 0,-0.0632 -0.386953,0.24885 -0.859896,0.69349 -1.243571,1.16916 -2.976861,1.85805 -4.75531,1.88999 l -1.527361,0.0274 -5.91e-4,0.83826 c -3.25e-4,0.46104 0.07168,1.02658 0.160008,1.25677 0.187998,0.48991 1.35034,0.54704 2.820959,0.13864 z m 31.647552,-8.84098 c 0.029,-0.97378 0.004,-1.01212 -0.33965,-0.52144 -0.25937,0.3703 -0.32313,0.92526 -0.21197,1.84481 0.14561,1.2045 0.1742,1.24839 0.33966,0.52144 0.0994,-0.43656 0.19475,-1.26673 0.21196,-1.84481 z m 0.5295,-2.54556 c -0.5912,-0.37442 -0.67783,-0.28553 -0.55269,0.56714 0.11757,0.80102 0.1214,0.80276 0.51852,0.23579 0.33763,-0.48205 0.34297,-0.60735 0.0342,-0.80293 z m 4.72182,1.18781 c -0.0879,-0.0879 -0.31612,-0.0973 -0.50712,-0.0209 -0.21107,0.0845 -0.14837,0.14716 0.15985,0.15985 0.27892,0.0115 0.43519,-0.051 0.34727,-0.13896 z m -51.40912,-1.30104 c 0.280419,-0.21215 0.42975,-0.46583 0.331847,-0.56373 -0.265988,-0.26599 -1.559016,0.39727 -1.37017,0.70283 0.216612,0.35049 0.428759,0.32207 1.038323,-0.1391 z m 25.642907,-14.29323 c -0.0862,-0.22455 -0.21342,-0.35154 -0.28277,-0.28218 -0.0694,0.0694 -0.0476,0.25308 0.0483,0.40828 0.26089,0.42213 0.41338,0.34013 0.23447,-0.1261 z m 7.674073,-27.232338 c 0.85122,-0.20334 1.98305,-0.67142 2.51517,-1.04018 0.53213,-0.36877 1.38349,-0.81321 1.89192,-0.98765 0.50843,-0.17444 1.36034,-0.68439 1.89313,-1.13321 0.53279,-0.44882 1.69493,-1.09414 2.58253,-1.43405 0.8876,-0.33991 1.73512,-0.84469 1.8834,-1.12174 0.14827,-0.27705 0.62413,-0.68707 1.05747,-0.91116 0.88107,-0.45562 2.70745,-3.77417 1.87672,-3.41002 -0.83604,0.36648 -3.9504,0.43086 -4.94611,0.10224 -1.54207,-0.50892 -3.18461,-2.32708 -3.69813,-4.09353 -0.23883,-0.82155 -0.35771,-1.79866 -0.26417,-2.17134 0.14744,-0.58747 0.0979,-0.65873 -0.3725,-0.53572 -0.4008,0.10481 -0.6613,-0.0591 -0.99697,-0.62736 -0.63294,-1.07147 -1.22817,-1.17404 -2.66783,-0.45973 -1.21605,0.60336 -2.68024,2.23201 -5.424783,6.03407 -1.00275,1.38913 -1.00412,1.39458 -0.44792,1.78416 0.7437,0.5209 0.61901,1.69838 -0.21808,2.05939 -0.50594,0.21821 -0.58624,0.40228 -0.45806,1.05007 0.22585,1.14139 0.52026,1.33507 1.54933,1.01924 0.838143,-0.25724 0.922063,-0.22231 1.502943,0.62543 0.54309,0.79259 0.58083,1.01 0.32179,1.85401 -0.16437,0.53558 -0.19782,1.142 -0.076,1.3787 0.11957,0.2324 0.298,0.86904 0.39651,1.41474 0.0985,0.5457 0.26301,0.98795 0.36556,0.98276 0.10255,-0.005 0.8829,-0.17579 1.73411,-0.37912 z m 10.08544,-12.64218 c -0.35164,-0.61846 -0.71481,-1.62628 -0.80705,-2.23959 -0.20532,-1.36524 0.28444,-3.53759 1.00372,-4.45201 0.29352,-0.37315 0.46612,-0.74601 0.38355,-0.82859 -0.27975,-0.27974 -1.45286,0.17443 -2.30703,0.89318 -1.07719,0.90639 -1.57192,2.08787 -1.57192,3.75394 0,1.57465 0.83525,2.74285 2.5026,3.50022 1.4815,0.67295 1.51867,0.64367 0.79613,-0.62715 z m 15.75127,-17.528646 v -1.455209 h -37.129862 c -20.421423,0 -37.179471,0.04955 -37.240104,0.110114 -0.06063,0.06056 -0.06899,0.715406 -0.01856,1.455208 l 0.09168,1.345095 h 37.148422 37.148424 z m -56.140238,-4.034896 -0.08372,-0.727604 -8.135938,-0.06997 -8.135938,-0.06997 v 0.797574 0.797574 h 8.219658 8.219658 z m 18.785415,0 -0.08372,-0.727604 -8.400521,-0.06986 -8.400519,-0.06986 v 0.797466 0.797467 h 8.484239 8.484241 z m 18.256253,0 -0.0837,-0.727604 -8.26823,-0.06992 -8.268233,-0.06991 v 0.797519 0.79752 h 8.351953 8.35195 z m 17.4625,0 -0.0837,-0.727604 -7.87135,-0.07008 -7.87136,-0.07008 v 0.797687 0.797687 h 7.95508 7.95507 z m -63.237021,-3.704167 -0.08212,-0.992187 -3.770314,-0.07341 -3.770312,-0.07341 v 1.065598 1.065598 h 3.85243 3.852431 z m 17.4625,0 -0.08212,-0.992187 -7.739063,-0.07014 -7.739062,-0.07014 v 1.06233 1.06233 h 7.82118 7.82118 z m 19.100181,-0.06615 v -1.058333 h -8.598966 -8.598958 v 1.058333 1.058334 h 8.598958 8.598966 z m 17.6777,0.198438 -0.0829,-0.859896 -7.87136,-0.07008 -7.87135,-0.07008 v 0.929979 0.929979 h 7.95426 7.95427 z m 8.99664,-0.132292 -0.0837,-0.727604 -3.63802,-0.07361 -3.63802,-0.07361 v 0.801217 0.801216 h 3.72174 3.72174 z m -54.507246,-3.96875 -0.08064,-1.256771 -8.135938,-0.06997 -8.135938,-0.06997 v 1.32674 1.326741 h 8.216581 8.21658 z m 18.520833,0 -0.08064,-1.256771 -8.268229,-0.06991 -8.268228,-0.06992 v 1.326686 1.326686 h 8.34887 8.348872 z m 18.256973,0.132292 -0.0814,-1.124479 -8.26823,-0.06992 -8.268233,-0.06991 v 1.194394 1.194395 h 8.349593 8.34958 z m 17.72708,0 -0.0814,-1.124479 -8.00365,-0.07003 -8.00364,-0.07002 v 1.194504 1.194505 h 8.085 8.08501 z m -55.408447,-3.439584 c -0.105979,-0.181901 -0.789706,-1.193932 -1.519392,-2.248958 l -1.326701,-1.918229 h -4.423872 -4.423872 l -1.348394,2.102026 c -0.741616,1.156114 -1.348393,2.168146 -1.348393,2.248958 0,0.08081 3.281245,0.146933 7.291657,0.146933 5.759705,0 7.251174,-0.06949 7.098967,-0.33073 z m 18.153126,0.217111 c 0,-0.06249 -0.611614,-1.074522 -1.359142,-2.248959 l -1.359141,-2.135339 h -4.436215 -4.436214 l -1.348394,2.102026 c -0.741616,1.156114 -1.348393,2.168146 -1.348393,2.248958 0,0.08081 3.214687,0.146933 7.143749,0.146933 3.929062,0 7.14375,-0.05113 7.14375,-0.113619 z m 17.111211,-1.936902 -1.44885,-2.050521 -4.4982,-0.07228 -4.498193,-0.07228 -1.29749,1.792075 c -0.71363,0.985641 -1.38706,1.940903 -1.49652,2.122804 -0.15734,0.261463 1.35993,0.33073 7.244543,0.33073 h 7.44356 z m 17.79761,-0.06615 -1.63744,-2.116667 h -4.17904 -4.17905 l -1.29303,1.785938 c -0.71116,0.982265 -1.38259,1.934765 -1.49205,2.116666 -0.1573,0.261405 1.33293,0.33073 7.10951,0.33073 h 7.30854 z m -68.124782,-0.546409 c 0.544777,-0.882609 0.933678,-1.661569 0.864223,-1.731023 -0.06945,-0.06945 -1.098367,-0.09146 -2.286473,-0.0489 l -2.160192,0.07738 1.20432,1.653645 c 0.662375,0.909506 1.245561,1.653646 1.295969,1.653646 0.05041,0 0.537377,-0.722134 1.082153,-1.604742 z m 18.274549,-0.0489 1.20424,-1.653645 -2.292849,-0.07693 c -1.261067,-0.04231 -2.348058,-0.02172 -2.415536,0.04575 -0.127401,0.1274 1.969895,3.338469 2.180507,3.338469 0.06567,0 0.661306,-0.74414 1.323638,-1.653646 z m 18.21753,-0.198437 0.96575,-1.455208 -1.19489,-0.08064 c -0.657194,-0.04435 -1.735886,-0.04435 -2.397097,0 l -1.202202,0.08064 1.226246,1.682518 c 0.674435,0.925385 1.318543,1.580229 1.43135,1.455209 0.112807,-0.125021 0.639683,-0.882155 1.170843,-1.682519 z m 18.813133,-0.595313 0.43025,-0.727604 h -2.29434 -2.29435 l 0.46232,0.727604 c 0.25427,0.400183 0.76321,1.131515 1.13097,1.625183 l 0.66865,0.897578 0.73312,-0.897578 c 0.40322,-0.493668 0.92674,-1.225 1.16338,-1.625183 z m 17.99166,0 0.43026,-0.727604 h -2.29435 -2.29434 l 0.46231,0.727604 c 0.25428,0.400183 0.76322,1.131515 1.13097,1.625183 l 0.66866,0.897578 0.73312,-0.897578 c 0.40321,-0.493668 0.92673,-1.225 1.16337,-1.625183 z m -77.17552,-4.080138 c -0.113916,-2.154082 -0.740808,-2.246404 -0.740808,-0.109098 0,1.277354 0.08464,1.609549 0.410079,1.609549 0.331503,0 0.394874,-0.287503 0.330729,-1.500451 z m 5.815309,-2.005278 -0.07382,-3.505729 -3.241146,-0.07429 -3.241146,-0.07429 v 1.066477 1.066477 h 1.190625 1.190625 v 2.513541 2.513542 h 2.124346 2.124347 z m 2.439717,2.976562 c 0,-0.293981 -0.176389,-0.529166 -0.396875,-0.529166 -0.220487,0 -0.396875,0.235185 -0.396875,0.529166 0,0.293982 0.176388,0.529167 0.396875,0.529167 0.220486,0 0.396875,-0.235185 0.396875,-0.529167 z m 7.626172,0.08807 c -0.128734,-0.663779 -0.747005,-0.754921 -0.747005,-0.110119 0,0.324997 0.170839,0.551215 0.416276,0.551215 0.24639,0 0.381363,-0.180015 0.330729,-0.441096 z m 2.957162,-2.072446 v -2.513541 h 1.984375 1.984375 v 2.513541 c 0,2.512415 3e-4,2.513542 0.669138,2.513542 h 0.669138 l -0.07383,-3.505729 -0.07382,-3.505729 -3.241146,-0.07429 -3.241146,-0.07429 v 3.580018 3.580019 h 0.661459 c 0.659137,0 0.661458,-0.0088 0.661458,-2.513542 z m 2.328308,1.013091 c -0.113916,-2.154082 -0.740808,-2.246404 -0.740808,-0.109098 0,1.277354 0.08464,1.609549 0.410079,1.609549 0.331503,0 0.394874,-0.287503 0.330729,-1.500451 z m 5.562446,1.059355 c -0.128733,-0.663779 -0.747004,-0.754921 -0.747004,-0.110119 0,0.324997 0.170838,0.551215 0.416275,0.551215 0.246391,0 0.381364,-0.180015 0.330729,-0.441096 z m 7.190495,0.05984 c 0,-0.209693 -0.119063,-0.454845 -0.264583,-0.544782 -0.145521,-0.08994 -0.264584,0.08163 -0.264584,0.38126 0,0.29963 0.119063,0.544782 0.264584,0.544782 0.14552,0 0.264583,-0.171567 0.264583,-0.38126 z m 2.910417,-2.132282 v -2.513541 h 0.889113 c 0.489012,0 1.441512,0.07571 2.116668,0.168254 l 1.22755,0.168255 v 2.345287 c 0,2.180081 0.0378,2.345287 0.53685,2.345287 0.51611,0 0.53399,-0.135416 0.46302,-3.505729 l -0.0738,-3.505729 -3.108851,-0.07454 -3.108854,-0.07454 v 3.580271 c 0,3.403883 0.02607,3.580272 0.529167,3.580272 0.492032,0 0.529167,-0.176389 0.529167,-2.513542 z m 2.38125,1.073948 c 0,-0.791776 -0.119063,-1.513178 -0.264584,-1.603114 -0.165269,-0.102142 -0.264583,0.438224 -0.264583,1.439593 0,0.892354 0.117306,1.603115 0.264583,1.603115 0.145521,0 0.264584,-0.647817 0.264584,-1.439594 z m 5.509501,0.998498 c -0.12873,-0.663779 -0.747,-0.754921 -0.747,-0.110119 0,0.324997 0.17084,0.551215 0.41627,0.551215 0.24639,0 0.38137,-0.180015 0.33073,-0.441096 z m 7.672923,0 c -0.12873,-0.663779 -0.747,-0.754921 -0.747,-0.110119 0,0.324997 0.17083,0.551215 0.41627,0.551215 0.24639,0 0.38136,-0.180015 0.33073,-0.441096 z m 2.95716,-1.905535 v -2.346632 l 0.99219,-0.163998 c 0.5457,-0.0902 1.43867,-0.165309 1.98437,-0.166911 l 0.99219,-0.0029 v 2.513541 c 0,2.512415 3e-4,2.513542 0.66914,2.513542 h 0.66914 l -0.0738,-3.505729 -0.0738,-3.505729 -3.24115,-0.07429 -3.24114,-0.07429 v 3.580018 3.580019 h 0.66145 c 0.65584,0 0.66146,-0.01995 0.66146,-2.346631 z m 2.32831,0.84618 c -0.11392,-2.154082 -0.74081,-2.246404 -0.74081,-0.109098 0,1.277354 0.0846,1.609549 0.41008,1.609549 0.3315,0 0.39488,-0.287503 0.33073,-1.500451 z m 5.29786,1.059355 c -0.12873,-0.663779 -0.747,-0.754921 -0.747,-0.110119 0,0.324997 0.17084,0.551215 0.41627,0.551215 0.24639,0 0.38137,-0.180015 0.33073,-0.441096 z m 7.4053,-0.01889 c -0.13283,-0.689699 -1.00855,-0.766617 -1.00855,-0.08858 0,0.378645 0.16992,0.548567 0.54857,0.548567 0.37864,0 0.52112,-0.142483 0.45998,-0.459983 z m 5.87062,-1.921267 v -2.38125 h 1.20583 1.20584 l -0.0814,-1.124479 -0.0814,-1.124479 -3.24114,-0.07429 -3.24115,-0.07429 v 3.580018 3.580019 h 2.11667 2.11667 z m 2.3283,0.880799 c -0.11391,-2.154082 -0.7408,-2.246404 -0.7408,-0.109098 0,1.277354 0.0846,1.609549 0.41007,1.609549 0.33151,0 0.39488,-0.287503 0.33073,-1.500451 z m -79.851224,-7.627674 c 0,-0.218281 -0.119063,-0.396875 -0.264584,-0.396875 -0.145521,0 -0.264583,0.178594 -0.264583,0.396875 0,0.218281 0.119062,0.396875 0.264583,0.396875 0.145521,0 0.264584,-0.178594 0.264584,-0.396875 z m 18.4602,0.08268 c -0.163532,-0.490596 -0.733116,-0.571966 -0.733116,-0.104731 0,0.230408 0.188516,0.418924 0.418924,0.418924 0.230407,0 0.371794,-0.141387 0.314192,-0.314193 z m 4.247222,-0.126903 c -0.128734,-0.663779 -0.747005,-0.754921 -0.747005,-0.110119 0,0.324997 0.170839,0.551215 0.416276,0.551215 0.24639,0 0.381363,-0.180015 0.330729,-0.441096 z m 3.954862,0.126903 c -0.163533,-0.490596 -0.733117,-0.571966 -0.733117,-0.104731 0,0.230408 0.188516,0.418924 0.418924,0.418924 0.230408,0 0.371795,-0.141387 0.314193,-0.314193 z m 9.789582,0 c -0.163532,-0.490596 -0.733116,-0.571966 -0.733116,-0.104731 0,0.230408 0.188515,0.418924 0.418923,0.418924 0.230408,0 0.371795,-0.141387 0.314193,-0.314193 z m 4.029384,0.06522 c 0,-0.136932 -0.119063,-0.322553 -0.264584,-0.412489 -0.145521,-0.08994 -0.264583,0.0221 -0.264583,0.248968 0,0.226869 0.119062,0.41249 0.264583,0.41249 0.145521,0 0.264584,-0.112036 0.264584,-0.248969 z m 4.172701,-0.06522 c -0.16353,-0.490596 -0.73312,-0.571966 -0.73312,-0.104731 0,0.230408 0.18852,0.418924 0.41893,0.418924 0.2304,0 0.37179,-0.141387 0.31419,-0.314193 z m 10.054163,0 c -0.16353,-0.490596 -0.73311,-0.571966 -0.73311,-0.104731 0,0.230408 0.18851,0.418924 0.41892,0.418924 0.23041,0 0.3718,-0.141387 0.31419,-0.314193 z m 4.23334,0 c -0.16353,-0.490596 -0.73312,-0.571966 -0.73312,-0.104731 0,0.230408 0.18852,0.418924 0.41893,0.418924 0.2304,0 0.37179,-0.141387 0.31419,-0.314193 z m 4.02938,0.06522 c 0,-0.136932 -0.11906,-0.322553 -0.26458,-0.412489 -0.14552,-0.08994 -0.26458,0.0221 -0.26458,0.248968 0,0.226869 0.11906,0.41249 0.26458,0.41249 0.14552,0 0.26458,-0.112036 0.26458,-0.248969 z m 9.72895,-0.06522 c -0.16353,-0.490596 -0.73311,-0.571966 -0.73311,-0.104731 0,0.230408 0.18851,0.418924 0.41892,0.418924 0.23041,0 0.37179,-0.141387 0.31419,-0.314193 z m 4.23333,0 c -0.16353,-0.490596 -0.73311,-0.571966 -0.73311,-0.104731 0,0.230408 0.18851,0.418924 0.41892,0.418924 0.23041,0 0.3718,-0.141387 0.31419,-0.314193 z m 4.02939,0.06522 c 0,-0.136932 -0.11906,-0.322553 -0.26458,-0.412489 -0.14553,-0.08994 -0.26459,0.0221 -0.26459,0.248968 0,0.226869 0.11906,0.41249 0.26459,0.41249 0.14552,0 0.26458,-0.112036 0.26458,-0.248969 z m -76.729171,-0.280198 c 0,-0.145521 -0.119063,-0.264583 -0.264583,-0.264583 -0.145521,0 -0.264584,0.119062 -0.264584,0.264583 0,0.145521 0.119063,0.264584 0.264584,0.264584 0.14552,0 0.264583,-0.119063 0.264583,-0.264584 z m 4.1727,-0.04961 c -0.163533,-0.490597 -0.733117,-0.571966 -0.733117,-0.104731 0,0.230408 0.188516,0.418924 0.418924,0.418924 0.230408,0 0.371795,-0.141387 0.314193,-0.314193 z"
       id="path1" /></g></svg>
