<svg width="313" height="94" viewBox="0 0 313 94" fill="none" xmlns="http://www.w3.org/2000/svg">
<path d="M8.43848 85.7775L11.9944 69.3052H13.0218L11.417 76.7413H20.8704L22.4751 69.3052H23.5025L19.9465 85.7775H18.9192L20.6872 77.5884H11.2339L9.46584 85.7775H8.43848Z" fill="white"/>
<path d="M32.5219 85.7777L33.7244 80.2006C34.2819 77.6121 32.8643 75.2353 30.0809 75.2353C27.7355 75.2353 24.964 77.3297 24.3428 80.2006C23.7216 83.0715 25.5931 85.1658 27.9386 85.1658C29.4756 85.1658 30.6822 84.554 31.9047 83.5421L31.6777 84.6011C30.8454 85.1658 29.5393 86.013 27.7594 86.013C24.6096 86.013 22.6464 83.5656 23.3712 80.2006C24.0959 76.8355 27.1183 74.3882 30.268 74.3882C33.4178 74.3882 35.381 76.8355 34.6562 80.2006L33.4537 85.7777H32.5259H32.5219Z" fill="white"/>
<path d="M44.4197 85.7777L45.8612 79.0946C46.363 76.7649 45.0091 75.2353 42.9822 75.2353C40.9554 75.2353 38.9405 76.7649 38.4347 79.0946L36.9932 85.7777H36.0654L37.5348 78.9769C38.1281 76.2237 40.5771 74.3882 43.1654 74.3882C45.7537 74.3882 47.4102 76.2237 46.8169 78.9769L45.3475 85.7777H44.4197Z" fill="white"/>
<path d="M62.1638 69.3052L59.8144 80.2005C59.0897 83.5655 56.0673 86.0129 52.9176 86.0129C49.7678 86.0129 47.8046 83.5655 48.5294 80.2005C49.2541 76.8354 52.2765 74.3881 55.4262 74.3881C57.2102 74.3881 58.15 75.2352 58.7353 75.8L58.5083 76.8589C57.7239 75.8471 56.7841 75.2352 55.2431 75.2352C52.8977 75.2352 50.1262 77.3296 49.505 80.2005C48.8838 83.0714 50.7553 85.1657 53.0968 85.1657C55.8802 85.1657 58.3252 82.789 58.8826 80.2005L61.232 69.3052H62.1599H62.1638Z" fill="white"/>
<path d="M63.8447 81.7772L72.3424 76.9296C71.7092 75.8942 70.5106 75.2353 68.9696 75.2353C66.0149 75.2353 63.4266 77.6121 62.8492 80.2712C62.2798 82.9068 63.9443 85.1658 66.8233 85.1658C69.7023 85.1658 72.3264 82.9773 72.9237 80.4359H73.8993C73.1865 83.4009 70.1084 86.013 66.8352 86.013C63.2195 86.013 61.1728 83.4951 61.8816 80.2241C62.5625 77.0708 65.5849 74.3882 69.1488 74.3882C71.3707 74.3882 73.0153 75.4942 73.7122 77.1179L64.2628 82.5302L63.8407 81.7772H63.8447Z" fill="white"/>
<path d="M75.2686 85.7775L78.8245 69.3052H79.7523L76.1964 85.7775H75.2686Z" fill="white"/>
<path d="M79.2388 84.9305H84.4155C86.4423 84.9305 87.3861 84.1775 87.629 83.048C88.4333 79.3299 79.9516 81.4949 80.8516 77.3297C81.1661 75.8707 82.4842 74.6235 84.3916 74.6235H89.5961L89.4129 75.4707H84.2841C83.2846 75.4707 82.1497 76.0825 81.8869 77.3062C81.1741 80.6006 89.6399 78.5063 88.6882 82.9068C88.2661 84.8599 86.5777 85.7777 84.0133 85.7777H79.0557L79.2388 84.9305Z" fill="white"/>
<path d="M90.1183 85.7775L93.6743 69.3052H94.6021L92.4478 79.2827H94.3512C95.5737 79.2827 96.5254 78.2708 98.0625 76.5765L99.8504 74.6234H100.973L98.7593 77.0707C98.0824 77.8237 97.3019 78.8356 96.3661 79.3298L96.3542 79.3768C97.9311 79.4239 99.3208 80.4593 98.8111 82.8125L98.17 85.7775H97.2422L97.8713 82.8596C98.1859 81.4006 97.3377 80.1299 95.5299 80.1299H92.2567L91.0382 85.7775H90.1104H90.1183Z" fill="white"/>
<path d="M110.367 85.7777L111.569 80.2006C112.127 77.6121 110.709 75.2353 107.926 75.2353C105.58 75.2353 102.809 77.3297 102.188 80.2006C101.566 83.0715 103.438 85.1658 105.779 85.1658C107.316 85.1658 108.523 84.554 109.745 83.5421L109.518 84.6011C108.69 85.1658 107.38 86.013 105.6 86.013C102.45 86.013 100.487 83.5656 101.212 80.2006C101.937 76.8355 104.959 74.3882 108.109 74.3882C111.259 74.3882 113.222 76.8355 112.497 80.2006L111.294 85.7777H110.367Z" fill="white"/>
<path d="M120.799 85.7777L122.392 78.3886C122.85 76.2707 121.583 75.2353 120.066 75.2353C118.549 75.2353 116.837 76.2707 116.383 78.3886L114.79 85.7777H113.862L115.455 78.3886C116.013 75.8001 118.075 74.3882 120.249 74.3882C122.081 74.3882 123.033 75.1883 123.22 76.5767H123.268C124.056 75.1883 125.35 74.3882 127.182 74.3882C129.356 74.3882 130.81 75.8001 130.252 78.3886L128.66 85.7777H127.732L129.325 78.3886C129.782 76.2707 128.492 75.2353 126.999 75.2353C125.506 75.2353 123.77 76.2707 123.316 78.3886L121.723 85.7777H120.795H120.799Z" fill="white"/>
<path d="M138.117 85.7777L139.71 78.3886C140.168 76.2707 138.902 75.2353 137.385 75.2353C135.868 75.2353 134.155 76.2707 133.701 78.3886L132.108 85.7777H131.181L132.773 78.3886C133.331 75.8001 135.394 74.3882 137.568 74.3882C139.4 74.3882 140.351 75.1883 140.538 76.5767H140.586C141.375 75.1883 142.669 74.3882 144.505 74.3882C146.679 74.3882 148.132 75.8001 147.575 78.3886L145.982 85.7777H145.054L146.647 78.3886C147.105 76.2707 145.815 75.2353 144.321 75.2353C142.828 75.2353 141.092 76.2707 140.638 78.3886L139.045 85.7777H138.117Z" fill="white"/>
<path d="M158.266 85.7777L159.469 80.2006C160.026 77.6121 158.612 75.2353 155.825 75.2353C153.48 75.2353 150.708 77.3297 150.087 80.2006C149.466 83.0715 151.337 85.1658 153.683 85.1658C155.22 85.1658 156.43 84.554 157.649 83.5421L157.422 84.6011C156.594 85.1658 155.283 86.013 153.504 86.013C150.354 86.013 148.391 83.5656 149.115 80.2006C149.84 76.8355 152.862 74.3882 156.012 74.3882C159.162 74.3882 161.125 76.8355 160.4 80.2006L159.198 85.7777H158.27H158.266Z" fill="white"/>
<path d="M161.807 85.7777L164.212 74.6235H165.14L164.678 76.7649H164.725C165.506 75.6354 167.095 74.6235 168.608 74.6235H169.683L169.5 75.4707H168.524C166.716 75.4707 164.562 77.3062 163.993 79.9418L162.734 85.7777H161.807Z" fill="white"/>
<path d="M170.61 81.7772L179.108 76.9296C178.475 75.8942 177.276 75.2353 175.735 75.2353C172.781 75.2353 170.192 77.6121 169.615 80.2712C169.045 82.9068 170.71 85.1658 173.589 85.1658C176.468 85.1658 179.092 82.9773 179.689 80.4359H180.665C179.952 83.4009 176.874 86.013 173.601 86.013C169.985 86.013 167.938 83.4951 168.647 80.2241C169.328 77.0708 172.35 74.3882 175.914 74.3882C178.136 74.3882 179.781 75.4942 180.478 77.1179L171.028 82.5302L170.606 81.7772H170.61Z" fill="white"/>
<path d="M189.605 85.7777L191.047 79.0946C191.549 76.7649 190.195 75.2353 188.168 75.2353C186.141 75.2353 184.126 76.7649 183.62 79.0946L182.179 85.7777H181.251L182.72 78.9769C183.314 76.2237 185.763 74.3882 188.351 74.3882C190.939 74.3882 192.596 76.2237 192.002 78.9769L190.533 85.7777H189.605Z" fill="white"/>
<path d="M198.839 85.7777L204.215 70.7172C204.573 69.7289 204.947 69.0229 205.851 69.0229C206.755 69.0229 206.91 69.2112 207.086 70.9996L208.3 84.3893C208.336 84.6717 208.404 84.9306 208.527 84.9306C208.651 84.9306 208.802 84.6717 208.937 84.3893L215.93 70.9996C216.877 69.2112 217.089 69.0229 218.016 69.0229C218.944 69.0229 218.988 69.7289 218.92 70.7172L217.797 85.7777H216.77L217.909 70.6467C217.929 70.2231 217.909 69.9642 217.714 69.9642C217.495 69.9642 217.339 70.2231 217.128 70.6467L210.112 84.154C209.288 85.7071 209.109 85.966 208.28 85.966C207.452 85.966 207.384 85.7071 207.229 84.154L206.042 70.6467C206.011 70.2231 205.971 69.9642 205.752 69.9642C205.557 69.9642 205.425 70.2231 205.262 70.6467L199.87 85.7777H198.843H198.839Z" fill="white"/>
<path d="M229.417 85.7779L230.62 80.2008C231.177 77.6123 229.76 75.2356 226.976 75.2356C224.631 75.2356 221.859 77.3299 221.238 80.2008C220.617 83.0717 222.489 85.166 224.834 85.166C226.371 85.166 227.578 84.5542 228.8 83.5423L228.573 84.6013C227.745 85.1661 226.435 86.0132 224.655 86.0132C221.505 86.0132 219.542 83.5659 220.267 80.2008C220.991 76.8357 224.014 74.3884 227.164 74.3884C230.313 74.3884 232.276 76.8357 231.552 80.2008L230.349 85.7779H229.421H229.417ZM226.272 71.0469C226.737 71.0469 227.024 71.3999 226.929 71.847C226.833 72.2941 226.391 72.647 225.925 72.647C225.459 72.647 225.173 72.2941 225.268 71.847C225.364 71.3999 225.806 71.0469 226.272 71.0469ZM230.13 71.0469C230.592 71.0469 230.883 71.3999 230.787 71.847C230.692 72.2941 230.25 72.647 229.784 72.647C229.318 72.647 229.031 72.2941 229.127 71.847C229.222 71.3999 229.664 71.0469 230.13 71.0469Z" fill="white"/>
<path d="M233.57 85.7775L237.126 69.3052H238.054L234.498 85.7775H233.57Z" fill="white"/>
<path d="M247.496 85.7777L248.698 80.2006C249.256 77.6121 247.838 75.2353 245.055 75.2353C242.709 75.2353 239.938 77.3297 239.316 80.2006C238.695 83.0715 240.567 85.1658 242.912 85.1658C244.449 85.1658 245.656 84.554 246.878 83.5421L246.651 84.6011C245.823 85.1658 244.513 86.013 242.733 86.013C239.583 86.013 237.62 83.5656 238.345 80.2006C239.07 76.8355 242.092 74.3882 245.242 74.3882C248.391 74.3882 250.355 76.8355 249.63 80.2006L248.427 85.7777H247.499H247.496Z" fill="white"/>
<path d="M251.036 85.7777L253.441 74.6235H254.369L253.907 76.7649H253.955C254.735 75.6354 256.324 74.6235 257.837 74.6235H258.913L258.729 75.4707H257.754C255.946 75.4707 253.792 77.3062 253.222 79.9418L251.964 85.7777H251.036Z" fill="white"/>
<path d="M271.715 69.3052L269.365 80.2005C268.64 83.5655 265.618 86.0129 262.468 86.0129C259.319 86.0129 257.355 83.5655 258.08 80.2005C258.805 76.8354 261.827 74.3881 264.977 74.3881C266.761 74.3881 267.701 75.2352 268.286 75.8L268.059 76.8589C267.275 75.8471 266.335 75.2352 264.794 75.2352C262.448 75.2352 259.677 77.3296 259.056 80.2005C258.435 83.0714 260.306 85.1657 262.648 85.1657C265.431 85.1657 267.876 82.789 268.433 80.2005L270.783 69.3052H271.711H271.715Z" fill="white"/>
<path d="M280.495 85.7777L281.697 80.2006C282.255 77.6121 280.837 75.2353 278.054 75.2353C275.708 75.2353 272.937 77.3297 272.315 80.2006C271.694 83.0715 273.566 85.1658 275.911 85.1658C277.448 85.1658 278.655 84.554 279.877 83.5421L279.65 84.6011C278.822 85.1658 277.512 86.013 275.732 86.013C272.582 86.013 270.619 83.5656 271.344 80.2006C272.069 76.8355 275.091 74.3882 278.241 74.3882C281.39 74.3882 283.354 76.8355 282.629 80.2006L281.426 85.7777H280.499H280.495Z" fill="white"/>
<path d="M284.644 85.7775L288.2 69.3052H289.127L285.571 85.7775H284.644Z" fill="white"/>
<path d="M291.469 81.7772L299.966 76.9296C299.333 75.8942 298.135 75.2353 296.594 75.2353C293.639 75.2353 291.051 77.6121 290.473 80.2712C289.904 82.9068 291.568 85.1658 294.447 85.1658C297.326 85.1658 299.95 82.9773 300.548 80.4359H301.523C300.811 83.4009 297.732 86.013 294.459 86.013C290.844 86.013 288.797 83.4951 289.506 80.2241C290.187 77.0708 293.209 74.3882 296.773 74.3882C298.995 74.3882 300.639 75.4942 301.336 77.1179L291.887 82.5302L291.465 81.7772H291.469Z" fill="white"/>
<path d="M310.464 85.7777L311.905 79.0946C312.407 76.7649 311.053 75.2353 309.026 75.2353C306.999 75.2353 304.984 76.7649 304.479 79.0946L303.037 85.7777H302.109L303.579 78.9769C304.172 76.2237 306.621 74.3882 309.209 74.3882C311.798 74.3882 313.454 76.2237 312.861 78.9769L311.392 85.7777H310.464Z" fill="white"/>
<path d="M7.79297 63.1168L313 63.1167" stroke="white" stroke-width="1.3"/>
<path d="M7.84473 92.9277H313" stroke="white" stroke-width="1.3"/>
<path d="M122.834 26.0578C119.955 27.1873 119.39 27.4736 117.307 28.1914C118.426 27.0226 119.119 25.4342 119.119 23.6772C119.119 20.0964 116.248 17.1941 112.708 17.1941C109.168 17.1941 106.297 20.0964 106.297 23.6772C106.297 26.8108 108.499 29.4268 111.422 30.0308C105.799 31.4937 97.465 32.8978 86.1719 34.9333C74.4887 37.0394 60.5794 44.4519 68.8421 22.0574C71.5021 20.7553 73.8874 19.5904 75.1377 19.0178C75.0063 20.2807 75.2612 21.3671 76.0257 22.0809V22.0887C79.737 25.9676 95.6412 14.4448 89.7597 8.60886C85.4472 4.36134 78.5344 10.4287 76.0377 15.9391C74.7435 16.5352 72.4459 17.653 69.9611 18.8688C70.3354 17.5941 70.7336 15.994 71.088 14.484C76.1332 11.3072 81.0869 4.67118 76.9575 1.161C70.2239 -4.52197 60.1135 12.3504 64.3106 15.6331H64.3146C65.2742 16.496 66.8591 16.4215 68.6311 15.7351C68.209 17.3431 67.775 18.7864 67.2254 20.2023C65.1906 21.2024 63.2195 22.1711 61.7501 22.8849C62.0846 21.4887 61.9492 20.3395 61.2484 19.6375C59.341 17.7236 54.0011 19.8336 49.3143 24.3557C44.6314 28.8777 42.3776 34.094 44.285 36.0118C46.1924 37.9258 51.5323 35.8157 56.2191 31.2937C57.9433 29.6307 59.337 27.8737 60.3126 26.2186C61.8895 25.4538 63.7889 24.5243 65.7162 23.5791C50.8513 54.0412 22.8457 61.1165 10.0833 37.0511C11.0589 38.0669 12.4486 38.6945 14.1689 38.6945C17.7248 38.6945 20.4406 36.0314 20.4406 32.7448C20.4406 29.4582 18.0713 26.905 14.5113 26.905C10.9514 26.905 8.47059 29.4582 8.47059 32.7448C8.47059 33.1252 8.49847 33.4939 8.5582 33.8508C7.67817 31.7957 7.0291 29.4739 6.35613 27.0461C16.8488 19.963 6.04155 13.6604 0.984375 13.8643H1.20737C6.22473 24.4145 7.66622 38.7337 10.1709 48.5387C52.7309 72.6393 68.8302 31.376 104.398 38.5611C108.587 34.5293 118.733 29.0111 122.819 26.8226V26.0617L122.834 26.0578Z" fill="white"/>
<path d="M40.8682 57.4022H97.2059C98.2373 50.4407 101.96 42.632 103.386 39.9689C78.4426 35.49 62.9963 54.7666 40.8682 57.4022Z" fill="white"/>
<path d="M31.057 57.3475C24.7614 56.614 17.8605 54.3863 10.0717 49.978C9.09607 52.2881 8.25984 55.3865 7.79395 57.3435H31.057V57.3475Z" fill="white"/>
</svg>
