<?xml version="1.0" encoding="UTF-8" standalone="no"?>
<svg
   width="196.66"
   height="41.428"
   viewBox="0 0 196.66 41.428"
   version="1.1"
   id="svg8"
   sodipodi:docname="inkubera.svg"
   inkscape:version="1.4 (e7c3feb1, 2024-10-09)"
   xmlns:inkscape="http://www.inkscape.org/namespaces/inkscape"
   xmlns:sodipodi="http://sodipodi.sourceforge.net/DTD/sodipodi-0.dtd"
   xmlns="http://www.w3.org/2000/svg"
   xmlns:svg="http://www.w3.org/2000/svg">
  <sodipodi:namedview
     id="namedview8"
     pagecolor="#ffffff"
     bordercolor="#000000"
     borderopacity="0.25"
     inkscape:showpageshadow="2"
     inkscape:pageopacity="0.0"
     inkscape:pagecheckerboard="0"
     inkscape:deskcolor="#d1d1d1"
     inkscape:window-width="1712"
     inkscape:window-height="1045"
     inkscape:window-x="0"
     inkscape:window-y="39"
     inkscape:window-maximized="1"
     inkscape:current-layer="svg8" />
  <defs
     id="defs1">
    <style
       id="style1">.a{fill:#fff;}</style>
  </defs>
  <path
     class="a"
     d="M0,48.778V21H2.934V48.778Z"
     transform="translate(0 -7.703)"
     id="path1"
     style="fill:#ffffff" />
  <path
     class="a"
     d="M38.425,48.573V31.325c0-5.363-2.7-8.307-7.648-8.307s-7.818,3.058-7.818,8.307V48.573H20V20.8h2.934v3.286A10.27,10.27,0,0,1,31.1,20.447,10.177,10.177,0,0,1,38.457,23.1a10.6,10.6,0,0,1,2.877,7.731V48.573Z"
     transform="translate(-7.38 -7.498)"
     id="path2"
     style="fill:#ffffff" />
  <path
     class="a"
     d="M85.019,41.075,75.5,25.79l-6.31,7.326v7.959H66.24V0h2.934V28.962L82.911,13.3h3.736L77.51,23.656,88.66,41.075Z"
     transform="translate(-24.442)"
     id="path3"
     style="fill:#ffffff" />
  <path
     class="a"
     d="M127.914,48.778V45.492a11.231,11.231,0,0,1-15.523.981,10.569,10.569,0,0,1-2.871-7.731V21h2.928V38.223c0,5.363,2.707,8.307,7.648,8.307s7.818-3.058,7.818-8.307V21h2.934V48.778Z"
     transform="translate(-40.412 -7.703)"
     id="path4"
     style="fill:#ffffff" />
  <path
     class="a"
     d="M175.521,39a9.668,9.668,0,0,1-6.783,2.425c-3.1,0-5.805-.69-8.2-3.926v3.578H157.6V0h2.934V16.849c2.417-3.236,5.117-3.926,8.2-3.926a9.668,9.668,0,0,1,6.783,2.425c2.814,2.824,3.565,7.44,3.565,11.822S178.31,36.174,175.521,39Zm-7.212-23.479c-6.783,0-7.818,5.882-7.818,11.651s1.035,11.657,7.818,11.657,7.843-5.9,7.843-11.657S175.092,15.519,168.308,15.519Z"
     transform="translate(-58.153)"
     id="path5"
     style="fill:#ffffff" />
  <path
     class="a"
     d="M203.558,35.3c0,7.035,3.155,10.96,9.03,10.96,3.275,0,5.288-.981,7.648-3.35l2.183,1.735c-2.814,2.824-5.408,4.268-10,4.268-7.648,0-11.787-4.964-11.787-14.253,0-8.941,4.139-14.247,11.093-14.247s11.1,5.065,11.1,13.557V35.3Zm15.352-7.6a7.864,7.864,0,0,0-14.374,0,13.033,13.033,0,0,0-.978,5.249h16.33a12.568,12.568,0,0,0-.978-5.268Z"
     transform="translate(-74.031 -7.487)"
     id="path6"
     style="fill:#ffffff" />
  <path
     class="a"
     d="M262.77,25.224a6.337,6.337,0,0,0-5.231-2.191c-4.777,0-7.421,3.926-7.421,8.421V48.57H247.19V20.792h2.928v3.691a9.49,9.49,0,0,1,8.108-4.04A8.654,8.654,0,0,1,264.9,23.1Z"
     transform="translate(-91.211 -7.495)"
     id="path7"
     style="fill:#ffffff" />
  <path
     class="a"
     d="M296.157,48.562V45.794c-2.36,2.368-4.543,3.115-8.456,3.115-4.083,0-6.379-.69-8.165-2.533a7.969,7.969,0,0,1-2.007-5.42c0-5.065,3.622-8.022,9.654-8.022h8.973V29.813c0-4.432-2.183-6.807-7.818-6.807-3.912,0-5.925.981-7.648,3.521l-2.126-1.849c2.354-3.286,5.288-4.268,9.774-4.268,7.3,0,10.727,3.286,10.727,9.118V48.562Zm0-13.3h-8.626c-4.77,0-7.074,1.9-7.074,5.6s2.246,5.42,7.244,5.42c2.524,0,4.947-.228,6.9-2.134,1.035-.981,1.552-2.71,1.552-5.306Z"
     transform="translate(-102.406 -7.487)"
     id="path8"
     style="fill:#ffffff" />
</svg>
