<?xml version="1.0" encoding="UTF-8" standalone="no"?>
<!-- Created with Inkscape (http://www.inkscape.org/) -->

<svg
   width="300mm"
   height="100mm"
   viewBox="0 0 300 100"
   version="1.1"
   id="svg1"
   xml:space="preserve"
   inkscape:version="1.4 (e7c3feb1, 2024-10-09)"
   sodipodi:docname="cyber_collective.svg"
   xmlns:inkscape="http://www.inkscape.org/namespaces/inkscape"
   xmlns:sodipodi="http://sodipodi.sourceforge.net/DTD/sodipodi-0.dtd"
   xmlns="http://www.w3.org/2000/svg"
   xmlns:svg="http://www.w3.org/2000/svg"><sodipodi:namedview
     id="namedview1"
     pagecolor="#ffffff"
     bordercolor="#000000"
     borderopacity="0.25"
     inkscape:showpageshadow="2"
     inkscape:pageopacity="0.0"
     inkscape:pagecheckerboard="0"
     inkscape:deskcolor="#d1d1d1"
     inkscape:document-units="mm"
     inkscape:window-width="1712"
     inkscape:window-height="1045"
     inkscape:window-x="0"
     inkscape:window-y="39"
     inkscape:window-maximized="1"
     inkscape:current-layer="layer1" /><defs
     id="defs1" /><g
     inkscape:label="Layer 1"
     inkscape:groupmode="layer"
     id="layer1"><g
       id="g67"
       transform="translate(38.833697,11.720542)"><path
         id="path49"
         style="fill:#b0dc6d;fill-opacity:1;stroke:none"
         d="m 172.70631,40.803231 c -0.18136,-0.181361 -0.32974,-0.71342 -0.32974,-1.182353 0,-0.750741 0.11854,-0.891654 0.99218,-1.179436 1.32751,-0.437284 2.5751,-1.278106 3.04464,-2.051944 0.34832,-0.574054 0.32376,-0.758341 -0.26322,-1.975079 -0.91766,-1.902209 -4.24342,-10.057143 -4.34789,-10.661232 -0.0762,-0.440391 0.10551,-0.514116 1.43788,-0.583537 l 1.52505,-0.07946 0.48961,1.142207 c 0.40348,0.941296 2.39565,6.424759 2.86292,7.880254 0.0701,0.218282 0.81063,-1.686718 1.64567,-4.233333 l 1.51826,-4.630208 h 1.43443 c 1.41238,0 1.43361,0.01157 1.38122,0.752404 -0.0516,0.729964 -3.99009,11.459161 -4.75574,12.955588 -0.59188,1.156807 -2.20214,2.817863 -3.24279,3.345086 -1.31926,0.668364 -2.97989,0.913628 -3.39248,0.501043 z m -96.443744,-4.467189 c -2.612049,-0.650404 -4.516658,-2.359762 -5.477954,-4.91638 -0.504079,-1.340624 -0.571705,-1.958769 -0.488628,-4.466385 0.108495,-3.274884 0.604114,-4.652676 2.302858,-6.401817 1.506444,-1.551136 2.934341,-2.051925 5.850646,-2.051925 3.867718,0 5.763597,1.110171 7.323995,4.288714 0.686973,1.399371 0.745797,1.759678 0.745797,4.568181 0,2.922202 -0.03675,3.123602 -0.883722,4.843365 -0.646182,1.31206 -1.209386,2.030714 -2.095294,2.673618 -1.719016,1.247491 -5.273117,1.961773 -7.277698,1.462629 z m 4.820126,-3.522169 c 1.402427,-0.928083 1.960429,-2.243179 2.084035,-4.911646 0.159466,-3.442618 -0.608121,-5.34018 -2.528861,-6.251631 -2.083326,-0.988603 -4.833685,-0.278697 -6.104266,1.575595 -1.567466,2.287566 -1.19816,7.52852 0.648245,9.199494 1.620608,1.46663 4.031544,1.625234 5.900847,0.388188 z m 33.691508,3.542232 c -0.90365,-0.105728 -1.80148,-0.323762 -1.99518,-0.484521 -0.27343,-0.226923 -0.36794,-1.848533 -0.42261,-7.251132 -0.0387,-3.827363 0.01,-7.941107 0.10825,-9.141654 l 0.17866,-2.182813 h 1.42392 1.42391 v 3.071016 c 0,2.82154 0.0376,3.055416 0.46302,2.878991 0.25466,-0.105613 1.30318,-0.251592 2.33003,-0.324398 1.54167,-0.109306 2.05456,-0.03669 2.94328,0.416698 2.20417,1.124483 3.0419,2.864598 3.02406,6.281529 -0.0118,2.25885 -0.4059,3.352663 -1.74004,4.829402 -1.52749,1.690745 -4.12119,2.329971 -7.7373,1.906882 z m 4.71617,-3.07304 c 0.98901,-0.505066 1.55703,-1.892536 1.55703,-3.803227 0,-2.663317 -1.02288,-3.98177 -3.08913,-3.98177 -0.61561,0 -1.4257,0.139606 -1.8002,0.310236 l -0.68089,0.310236 0.0731,3.722378 0.0731,3.722378 0.79375,0.171886 c 0.948,0.205287 2.12492,0.03214 3.07318,-0.452117 z m -17.62526,2.624016 c -2.323586,-1.222805 -3.300553,-3.01408 -3.333717,-6.112397 -0.04604,-4.301403 2.193897,-6.942449 5.888067,-6.942449 3.37027,0 5.28574,2.032439 5.35019,5.676906 l 0.033,1.863719 -4.03489,0.07304 c -3.85014,0.06969 -4.0349,0.09755 -4.0349,0.608452 0,0.933469 0.73883,2.009462 1.64117,2.390097 0.99717,0.42064 3.15707,0.410208 4.2905,-0.02072 0.94686,-0.359995 1.15391,-0.166765 1.2607,1.176583 0.0789,0.992419 0.0309,1.070796 -0.84237,1.374129 -1.37471,0.477537 -5.24769,0.423124 -6.21771,-0.08736 z m 4.80843,-8.457454 c -0.29454,-1.81501 -1.79189,-2.626664 -3.35475,-1.818475 -0.74127,0.383327 -1.58597,1.717106 -1.58597,2.504251 0,0.168817 0.97291,0.273082 2.54816,0.273082 h 2.54816 z m 32.58832,8.361669 c -1.26108,-0.666219 -2.54449,-2.239393 -2.90006,-3.554833 -0.15563,-0.575747 -0.24199,-2.014019 -0.19191,-3.196161 0.078,-1.841033 0.20605,-2.335283 0.89269,-3.445551 2.63679,-4.263555 9.94466,-3.430803 11.27142,1.28441 0.41726,1.482914 0.35742,4.661719 -0.1087,5.7742 -0.56421,1.346573 -1.76148,2.631987 -2.95758,3.175296 -1.49542,0.679275 -4.68693,0.659421 -6.00586,-0.03736 z m 4.71093,-2.498864 c 1.31111,-0.918337 1.86304,-4.116281 1.04735,-6.068491 -1.02859,-2.461779 -4.27804,-2.295151 -5.35167,0.274428 -0.7428,1.777751 -0.26717,4.745607 0.90875,5.670592 0.78323,0.616087 2.59805,0.682078 3.39557,0.123471 z m 17.78846,2.530548 c -2.61294,-1.022113 -4.12307,-2.936182 -4.75855,-6.031399 -0.46073,-2.244072 -0.0102,-5.669875 0.98644,-7.501052 1.59832,-2.936641 5.24161,-4.405252 9.21284,-3.713692 3.06093,0.533037 3.526,0.995257 2.66897,2.652582 -0.38121,0.737177 -0.40888,0.74505 -1.38907,0.395349 -1.20859,-0.431186 -3.99132,-0.486212 -5.01778,-0.09922 -1.04395,0.393588 -2.40828,1.778117 -2.7028,2.742823 -0.74436,2.438204 -0.51768,5.474411 0.53813,7.207875 1.09276,1.794138 3.57068,2.486408 6.57922,1.838072 0.94589,-0.203836 1.80468,-0.319671 1.90843,-0.257411 0.25878,0.155285 0.74661,1.981795 0.59488,2.227296 -0.0675,0.109175 -0.67953,0.388239 -1.36013,0.620142 -1.73489,0.591139 -5.65365,0.547225 -7.26058,-0.08136 z m 25.82886,0.270732 -0.79375,-0.169664 -0.0695,-9.324031 -0.0695,-9.324032 h 1.44993 1.44993 l 0.0748,2.976563 c 0.0627,2.492673 0.13933,2.959494 0.47168,2.871568 2.39022,-0.632339 5.45964,-0.06346 6.67182,1.236546 0.93011,0.997497 1.17733,1.551194 1.50615,3.3733 0.62964,3.489024 -0.60985,6.571056 -3.15877,7.854433 -1.30742,0.658285 -1.70307,0.726127 -4.09316,0.701853 -1.4552,-0.01478 -3.00302,-0.103221 -3.43958,-0.196536 z m 6.015,-2.900911 c 1.01581,-0.583428 1.52563,-1.830867 1.52563,-3.732963 0,-1.767233 -0.44284,-2.912223 -1.38028,-3.568833 -0.66324,-0.46455 -2.47213,-0.544669 -3.49729,-0.154902 l -0.67868,0.258035 v 3.827035 3.827035 l 0.99218,0.09681 c 1.27172,0.124086 2.13367,-0.03257 3.03844,-0.552217 z m 10.33664,2.719523 c -2.98484,-1.306739 -4.1738,-4.971347 -2.97992,-9.184717 0.64728,-2.284343 2.95311,-3.879435 5.62268,-3.889561 3.44213,-0.01306 5.17779,1.948694 5.20336,5.881168 l 0.0116,1.785937 h -3.92466 c -2.15856,0 -3.98698,0.06233 -4.06316,0.13851 -0.0762,0.07618 -0.081,0.439205 -0.0108,0.806722 0.18202,0.952173 1.47523,2.143274 2.49714,2.299975 0.8645,0.132563 3.10818,-0.13208 3.96178,-0.467295 0.34735,-0.136407 0.50632,0.04723 0.72613,0.838829 0.38964,1.40322 0.39366,1.39168 -0.63317,1.820718 -1.18806,0.496401 -5.25183,0.477203 -6.41103,-0.03029 z m 4.94732,-7.929212 c 0,-0.222955 -0.17284,-0.819025 -0.38408,-1.3246 -0.69582,-1.665327 -2.71661,-1.841731 -3.97439,-0.346942 -0.36774,0.437029 -0.66861,1.08312 -0.66861,1.435757 0,0.633495 0.03,0.641158 2.51354,0.641158 2.08129,0 2.51354,-0.06971 2.51354,-0.405373 z m -119.565561,1.872839 0.02396,-6.205451 0.850411,-0.280661 c 0.467726,-0.154363 1.260133,-0.273712 1.760905,-0.265219 0.500772,0.0085 1.637975,-0.06243 2.527118,-0.157595 2.454486,-0.262716 3.230435,0.39118 2.462978,2.075563 -0.257047,0.564158 -0.424568,0.617893 -1.653645,0.530431 -0.813049,-0.05786 -1.635846,0.04522 -2.029082,0.254188 -0.728144,0.386947 -0.713104,0.244749 -0.769767,7.277632 l -0.02398,2.976562 h -1.586427 -1.586428 z m 37.809311,0.0034 c 0,-4.348545 0.0899,-6.257674 0.30092,-6.388069 0.1655,-0.102287 0.90964,-0.227564 1.65364,-0.278393 0.744,-0.05083 2.18964,-0.166878 3.21253,-0.257885 2.27709,-0.202594 2.73968,0.129117 2.35081,1.685695 -0.24175,0.96768 -0.24245,0.968077 -1.57053,0.89635 -0.73077,-0.03947 -1.65351,0.05174 -2.05052,0.202686 l -0.72185,0.274446 v 5.033631 5.033632 h -1.5875 -1.5875 z m 87.3125,0 c 0,-4.318266 0.0906,-6.258115 0.29843,-6.386533 0.16413,-0.101442 0.90828,-0.231566 1.65364,-0.289164 0.74537,-0.0576 2.25178,-0.174199 3.34757,-0.259112 2.46777,-0.191227 2.89662,0.117391 2.41179,1.735618 -0.3027,1.010313 -0.31281,1.016439 -1.4632,0.886773 -0.63712,-0.07181 -1.58924,0.01162 -2.11582,0.185407 l -0.95741,0.315976 v 5.006564 5.006564 h -1.5875 -1.5875 z m -138.906248,-12.766938 c -1.547277,-0.552983 -1.230886,-2.726801 0.396875,-2.726801 1.369929,0 1.969198,1.726648 0.86717,2.498538 -0.628373,0.44013 -0.656843,0.445271 -1.264045,0.228263 z m 4.556788,-0.228263 c -1.102028,-0.77189 -0.502759,-2.498538 0.86717,-2.498538 1.369929,0 1.969198,1.726648 0.86717,2.498538 -0.323421,0.226533 -0.713648,0.411878 -0.86717,0.411878 -0.153523,0 -0.543749,-0.185345 -0.86717,-0.411878 z" /><path
         id="path38"
         style="fill:#ffffff;fill-opacity:1;stroke:none"
         d="m 72.898513,54.420409 c -2.618605,-1.363895 -3.16789,-5.331883 -1.052081,-7.600142 l 1.008832,-1.081521 h 2.113605 c 1.162483,0 2.19393,0.08032 2.292104,0.178499 0.09817,0.09817 0.105693,0.407887 0.01671,0.688252 -0.138859,0.437505 -0.348098,0.491852 -1.476303,0.383446 -2.511755,-0.241348 -3.567731,0.743124 -3.530891,3.291803 0.0354,2.449336 1.527887,3.635094 3.837507,3.04885 0.888849,-0.225614 1.020955,-0.194962 1.168914,0.271216 0.245451,0.773346 -0.174,1.031453 -1.905673,1.172641 -1.170633,0.09545 -1.778192,0.0087 -2.472723,-0.353044 z m 10.181183,0.211446 c -0.946622,-0.411953 -1.976623,-1.664027 -2.272353,-2.762284 -0.368356,-1.367968 -0.101519,-3.536463 0.571309,-4.642839 0.946323,-1.556104 3.690637,-2.118548 5.528272,-1.133014 2.532058,1.357958 2.653351,6.242689 0.200485,8.074018 -0.768742,0.573948 -3.145892,0.847871 -4.027713,0.464119 z m 3.183182,-1.689283 c 1.313218,-1.129582 1.379109,-4.520295 0.107856,-5.55018 -0.841182,-0.68147 -2.441322,-0.599571 -3.336923,0.170792 -0.662901,0.570204 -0.737404,0.805021 -0.742358,2.339764 -0.003,0.945193 0.155496,2.007426 0.355531,2.381987 0.702977,1.316312 2.47538,1.638666 3.615894,0.657637 z m 6.47411,-2.696958 v -4.639159 h 0.79375 0.79375 v 3.986025 3.986026 l 2.05052,-0.05987 c 2.007203,-0.05861 2.050521,-0.0464 2.050521,0.578037 0,0.629939 -0.03554,0.638847 -2.844271,0.713006 l -2.84427,0.0751 z m 9.260412,-0.009 v -4.630208 h 0.79375 0.79375 v 3.91576 3.915761 l 2.05052,-0.01316 c 2.04395,-0.01311 2.05079,-0.01082 2.13424,0.714448 l 0.0837,0.727604 h -2.92799 -2.92799 z m 9.26042,0.273248 c 0,-2.405859 -0.0298,-4.463587 -0.0661,-4.572727 -0.0364,-0.109141 1.27331,-0.232103 2.91042,-0.273249 l 2.97656,-0.07481 v 0.670123 c 0,0.661266 -0.028,0.670124 -2.11667,0.670124 h -2.11666 v 1.322917 1.322916 h 1.87048 c 1.78843,0 1.86678,0.02612 1.78594,0.595313 -0.0605,0.42615 -0.27251,0.603465 -0.74601,0.624001 -0.3638,0.01578 -1.16747,0.04555 -1.78594,0.06615 l -1.12447,0.03746 v 1.327403 1.327403 l 2.18281,-0.07063 c 2.17078,-0.07024 2.18281,-0.06699 2.18281,0.590826 v 0.661458 l -2.97656,0.07481 -2.97656,0.07481 z m 11.43481,3.916936 c -1.43491,-0.707239 -2.02652,-1.802334 -2.12013,-3.924434 -0.1429,-3.239466 1.29017,-4.895958 4.23559,-4.895958 1.85147,0 2.59561,0.315654 2.41074,1.022603 -0.11597,0.443448 -0.32225,0.484998 -1.81353,0.365293 -1.60444,-0.128789 -1.72027,-0.09748 -2.49112,0.673373 -0.70996,0.709957 -0.80844,0.989796 -0.80844,2.297142 0,2.029986 0.52098,2.956078 1.86685,3.318483 0.58827,0.158404 1.30185,0.22231 1.58574,0.142014 0.28388,-0.0803 0.73975,-0.208934 1.01303,-0.285864 0.37213,-0.104757 0.52839,0.02501 0.62242,0.516892 0.10362,0.542058 -0.0132,0.705118 -0.66865,0.933622 -1.15062,0.40111 -2.83296,0.329486 -3.8325,-0.163166 z m 10.17283,0.263635 c -0.097,-0.09701 -0.17639,-1.882951 -0.17639,-3.96875 v -3.792361 h -1.32292 c -1.23472,0 -1.32291,-0.0441 -1.32291,-0.661458 v -0.661458 h 3.57187 3.57188 v 0.661458 c 0,0.625379 -0.0794,0.661458 -1.45521,0.661458 h -1.45521 v 3.96875 3.96875 h -0.61736 c -0.33955,0 -0.69674,-0.07937 -0.79375,-0.176389 z m 7.68408,0.01116 c -0.10316,-0.103153 -0.18755,-2.191769 -0.18755,-4.641369 v -4.453819 h 0.79999 0.8 l -0.0724,4.564062 c -0.0692,4.365545 -0.0959,4.567425 -0.61245,4.641369 -0.29703,0.04252 -0.62445,-0.0071 -0.7276,-0.110243 z m 17.07651,-0.01694 c -0.58923,-0.118004 -0.59532,-0.16503 -0.59532,-4.598738 v -4.479514 h 3.04271 3.04271 v 0.661458 c 0,0.653676 -0.0265,0.661458 -2.24896,0.661458 h -2.24896 v 1.322917 1.322916 h 1.87049 c 1.77381,0 1.86612,0.02994 1.78594,0.579314 -0.0675,0.462757 -0.27087,0.585052 -1.01059,0.60783 -2.82055,0.08685 -2.64584,-0.01058 -2.64584,1.475501 v 1.339727 l 2.18282,-0.0577 c 2.14483,-0.0567 2.18281,-0.04663 2.18281,0.578502 0,0.622185 -0.0525,0.636965 -2.38125,0.670877 -1.30969,0.01907 -2.64914,-0.01897 -2.97656,-0.08455 z m -10.51873,-4.249607 c -0.84814,-2.291953 -1.5978,-4.324759 -1.66592,-4.517347 -0.09,-0.254363 0.11282,-0.326748 0.74126,-0.264584 0.85849,0.08492 0.87435,0.112422 2.07241,3.591944 0.66402,1.928501 1.28806,3.416782 1.38676,3.307291 0.0987,-0.109491 0.51027,-1.211106 0.91461,-2.448033 1.25401,-3.836166 1.60179,-4.497916 2.36385,-4.497916 0.36897,0 0.67086,0.113458 0.67086,0.25213 0,0.241411 -1.83392,5.267612 -2.78004,7.619223 -0.40131,0.997469 -0.54895,1.124479 -1.30707,1.124479 h -0.85466 z" /><path
         id="path36"
         style="fill:#ffffff;fill-opacity:1;stroke:none"
         d="m 25.850324,44.495205 c -0.174625,-0.174625 -0.3175,-0.686594 -0.3175,-1.137709 0,-0.451114 0.142875,-0.963083 0.3175,-1.137708 0.231417,-0.231418 2.273347,-0.3175 7.531315,-0.3175 6.8613,0 7.227201,0.02501 7.487709,0.511773 0.408362,0.763031 0.332694,1.469665 -0.209962,1.960762 -0.424581,0.38424 -1.341844,0.437882 -7.487709,0.437882 -5.094664,0 -7.090401,-0.08655 -7.321353,-0.3175 z m -13.924642,-0.362857 c -0.228675,-0.228676 -0.415773,-0.754572 -0.415773,-1.168658 0,-0.629279 0.7638,-1.487432 4.652318,-5.227023 l 4.65232,-4.474138 -4.651989,-4.212932 c -4.194053,-3.798218 -4.652021,-4.296979 -4.652319,-5.066729 -2.38e-4,-0.616019 0.181521,-0.97295 0.65265,-1.281646 0.359139,-0.235317 0.767671,-0.38689 0.907849,-0.336828 0.218233,0.07794 7.384066,6.494965 10.418416,9.329727 1.427747,1.333835 1.220602,1.863075 -1.924314,4.916501 -1.42387,1.382448 -3.843718,3.733932 -5.377439,5.22552 -2.823373,2.745813 -3.465912,3.092012 -4.261719,2.296206 z" /><path
         id="path2"
         style="fill:#b0dc6d;fill-opacity:1;stroke:none"
         d="m 26.438725,75.272954 c -11.467243,-5.514924 -19.8312185,-12.194572 -24.1244765,-19.266321 -2.46125496,-4.05412 -2.31395295808,-2.414806 -2.31198796,-25.729873 l 0.0017,-20.48907 8.20035496,-2.69912 c 4.5101965,-1.48452 11.1957505,-3.68675 14.8567885,-4.89384 l 6.656432,-2.19473 12.261276,4.03744 c 6.743701,2.22059 13.332837,4.41892 14.642525,4.88517 l 2.38125,0.84774 0.08033,19.968572 c 0.05805,14.430969 -0.0049,20.372127 -0.227006,21.423782 -1.515702,7.176742 -9.537841,15.32626 -21.817166,22.163589 -3.375913,1.879764 -6.453415,3.238038 -7.324258,3.232607 -0.335398,-0.0021 -1.809502,-0.580768 -3.275788,-1.285946 z m 6.191776,-2.327172 c 6.043686,-2.746404 13.011334,-7.49932 17.384621,-11.858756 3.542766,-3.531545 6.083132,-7.528081 6.733442,-10.593137 0.184858,-0.871273 0.255188,-7.695895 0.208253,-20.208136 l -0.07087,-18.892577 -6.217708,-2.042866 c -3.419739,-1.12358 -9.524031,-3.13391 -13.565092,-4.46739 l -7.347384,-2.42453 -12.099491,3.96747 c -6.654718,2.18211 -12.8471855,4.171871 -13.7610355,4.421693 l -1.661546,0.45422 0.07405,19.996612 0.07405,19.996611 0.836361,1.648808 c 2.634707,5.19408 7.4148125,10.092883 14.3771795,14.734188 4.993573,3.328852 11.546341,6.647681 12.521635,6.341926 0.265702,-0.0833 1.396796,-0.566659 2.513542,-1.074136 z" /></g></g></svg>
