<?xml version="1.0" encoding="UTF-8" standalone="no"?>
<!-- Created with Inkscape (http://www.inkscape.org/) -->

<svg
   width="210mm"
   height="70mm"
   viewBox="0 0 210 70"
   version="1.1"
   id="svg1"
   xml:space="preserve"
   inkscape:version="1.4 (e7c3feb1, 2024-10-09)"
   sodipodi:docname="white.svg"
   xmlns:inkscape="http://www.inkscape.org/namespaces/inkscape"
   xmlns:sodipodi="http://sodipodi.sourceforge.net/DTD/sodipodi-0.dtd"
   xmlns="http://www.w3.org/2000/svg"
   xmlns:svg="http://www.w3.org/2000/svg"><sodipodi:namedview
     id="namedview1"
     pagecolor="#ffffff"
     bordercolor="#000000"
     borderopacity="0.25"
     inkscape:showpageshadow="2"
     inkscape:pageopacity="0.0"
     inkscape:pagecheckerboard="0"
     inkscape:deskcolor="#d1d1d1"
     inkscape:document-units="mm"
     inkscape:window-width="1712"
     inkscape:window-height="1045"
     inkscape:window-x="0"
     inkscape:window-y="39"
     inkscape:window-maximized="1"
     inkscape:current-layer="layer1" /><defs
     id="defs1" /><g
     inkscape:label="Layer 1"
     inkscape:groupmode="layer"
     id="layer1"><path
       style="fill:#ffffff;stroke:none;stroke-width:1.66069"
       d="m 24.755979,64.144016 c 0.124403,-0.475688 1.487821,-6.549803 3.029837,-13.49804 1.744814,-7.862032 2.921387,-12.333612 3.115372,-11.840021 0.171438,0.436231 0.732384,2.71289 1.246544,5.059266 l 0.934835,4.266119 -1.58285,6.91474 c -0.870569,3.803101 -1.626433,6.942507 -1.679699,6.976435 -0.05326,0.03388 -1.265355,0.719761 -2.69353,1.524051 -2.283412,1.285907 -2.569395,1.357997 -2.370509,0.59745 z m 26.002519,0.0066 c 0.77845,-2.480177 11.769246,-39.206867 11.978648,-40.027681 0.247244,-0.969147 0.206603,-0.976786 -5.837104,-1.098481 l -6.086082,-0.122559 2.519845,-1.42803 c 2.511533,-1.423313 2.540158,-1.428029 8.677982,-1.428029 4.42149,0 6.158136,0.145477 6.158136,0.515927 0,0.418312 -5.625642,19.427459 -11.227043,37.936388 l -1.065474,3.520684 -2.688875,1.478216 c -2.261482,1.24326 -2.647731,1.347136 -2.430033,0.653532 z m 29.350905,-12.578398 c 0.132507,-12.248784 0.212731,-13.429038 1.02257,-15.043364 0.483329,-0.963467 1.550633,-2.199255 2.371784,-2.746187 1.63484,-1.088916 3.415778,-1.37037 2.816997,-0.445199 -0.195512,0.30208 -0.454339,6.864422 -0.575171,14.582987 l -0.219696,14.033746 -2.416653,1.45299 c -1.32916,0.799141 -2.580221,1.453803 -2.780135,1.454799 -0.199914,9.97e-4 -0.298776,-5.979405 -0.219696,-13.289772 z m 25.322937,-3.515138 c -0.12731,-15.986653 -0.17876,-16.903206 -1.05443,-18.78399 -3.54571,-7.615519 -14.689762,-9.421738 -22.069385,-3.576965 -0.958322,0.759003 -1.862246,1.380019 -2.008719,1.380019 -0.146473,0 -0.266313,-4.251123 -0.266313,-9.446897 v -9.4469261 l -5.821937,-0.00113 -5.821937,-0.00113 2.548505,-1.5367282 2.548507,-1.5367332 h 6.129475 6.129477 v 8.8063315 8.806335 l 1.867414,-1.07945 c 2.839119,-1.641128 6.26526,-2.472737 10.185754,-2.472355 2.991819,2.82e-4 3.961789,0.19739 6.213799,1.262773 1.56832,0.741965 3.24925,1.964633 4.07699,2.965548 2.55655,3.091429 2.70136,4.288522 2.70136,22.331594 v 16.294762 l -2.37547,1.420838 c -1.30651,0.781456 -2.48207,1.420822 -2.61237,1.420822 -0.1303,0 -0.29712,-7.563025 -0.37072,-16.80672 z m 20.63172,-3.939676 -0.11415,-20.77609 -5.8558,-0.219693 -5.8558,-0.219693 2.49005,-1.428029 c 2.48185,-1.423313 2.51017,-1.42803 8.602,-1.42803 h 6.11193 l -0.005,20.980953 -0.005,20.980936 -2.62681,1.44286 -2.62682,1.442859 z m 34.81743,15.693408 v -4.613619 h -3.24164 c -2.47746,0 -3.3838,-0.171084 -3.84469,-0.725739 -0.46627,-0.561148 -0.63561,-3.201947 -0.74668,-11.643877 l -0.14365,-10.918138 h 2.88986 2.88985 v 9.378826 c 0,11.121888 -0.1209,10.833193 4.53836,10.833193 h 2.9313 v 4.791363 4.791363 l -2.41,1.360107 c -1.32549,0.748075 -2.51186,1.360123 -2.63635,1.360123 -0.12455,0 -0.22635,-2.076114 -0.22635,-4.613602 z m 39.13246,-0.05978 c 1.87094,-2.030412 4.07803,-4.995877 3.86242,-5.189563 -0.0849,-0.07623 -1.96582,-1.101288 -4.18003,-2.277955 -2.21418,-1.176667 -4.05074,-2.337126 -4.08125,-2.57879 -0.0306,-0.241663 0.96203,-1.014234 2.20562,-1.716807 l 2.26105,-1.277421 4.38731,2.15621 c 2.41302,1.1859 4.47951,2.30441 4.59222,2.485558 0.31667,0.509035 -3.5972,5.378451 -5.67693,7.062907 -1.02254,0.828204 -2.5512,1.849596 -3.39705,2.269785 l -1.53786,0.763951 z m -20.71876,-3.819094 c -2.35729,-1.244954 -4.22724,-4.072515 -4.62679,-6.996147 l -0.28524,-2.087108 h 2.90988 2.90987 l 0.68596,1.64171 c 1.43717,3.439626 4.47465,5.362458 8.497,5.378899 2.14756,0.0083 2.30619,0.0754 1.75758,0.738377 -2.01055,2.42956 -8.40269,3.144006 -11.84826,1.324269 z m -161.167307,-4.274256 c -2.19224,-11.00926 -5.37356,-26.814001 -5.542586,-27.535473 -0.221303,-0.944635 -0.431087,-0.980605 -6.4070468,-1.098481 l -6.1782516019799,-0.121895 2.5081684019799,-1.439438 2.5081683,-1.439422 6.4216317,0.121231 6.421632,0.12123 1.743012,8.644784 1.743011,8.644783 -0.988933,4.756654 c -1.104255,5.311342 -2.154916,9.717026 -2.228806,9.34596 z m 22.880221,-12.170715 c -1.284909,-6.705161 -2.535571,-13.125065 -2.779249,-14.266459 l -0.443051,-2.075251 -6.228275,-0.121728 -6.228275,-0.121729 2.491025,-1.439986 2.491023,-1.43997 6.506904,0.121729 6.506903,0.121895 0.507587,2.416639 c 0.279172,1.329168 1.049871,5.264743 1.712662,8.745737 l 1.205075,6.32908 -1.483369,6.962319 c -0.815851,3.829291 -1.582231,6.961572 -1.703063,6.960626 -0.120832,-9.47e-4 -1.270986,-5.487774 -2.555897,-12.192935 z m 163.373136,4.983704 c 0,-5.570526 -2.42976,-12.628601 -5.528,-16.05798 -4.85596,-5.374963 -12.76607,-7.700265 -20.58379,-6.050932 -2.68687,0.566844 -2.94446,0.565998 -2.19697,-0.0066 1.52568,-1.170124 5.28082,-2.67031 7.89276,-3.15314 5.49975,-1.016676 10.19715,-0.405508 15.00475,1.952243 4.67324,2.291888 7.63347,5.983624 9.50537,11.854287 0.79712,2.499906 1.77947,9.27108 1.46422,10.092591 -0.18431,0.480272 -4.74236,3.308846 -5.33199,3.308846 -0.12455,0 -0.22635,-0.872361 -0.22635,-1.938609 z m -29.87863,-5.695493 c 0,-0.940533 1.60802,-4.26964 2.54357,-5.265972 1.16835,-1.244274 3.94348,-2.7289 4.3469,-2.325501 0.11259,0.112595 -0.10662,0.806349 -0.48689,1.541787 -0.38031,0.735454 -0.69149,1.742464 -0.69149,2.237799 0,0.857598 0.25056,0.900594 5.24677,0.900594 2.88572,0 5.32996,0.148299 5.43165,0.329547 0.10163,0.181248 0.31485,0.873292 0.47369,1.537868 l 0.28881,1.208336 h -8.57649 c -4.71708,0 -8.57652,-0.07407 -8.57652,-0.164409 z m -13.18174,-11.040033 v -3.73483 h -3.95452 -3.95452 v -6.358758 -6.358774 l -6.04164,-0.122227 -6.04163,-0.122226 2.41666,-1.4239111 2.41664,-1.4238892 6.26134,-0.00332 6.26132,-0.00332 v 6.3711743 6.371163 h 3.88129 c 2.13472,0 3.96367,0.08154 4.06438,0.181098 0.10063,0.09964 0.12023,1.840977 0.0433,3.869729 l -0.13966,3.688646 -2.3456,1.40297 c -1.29007,0.771624 -2.46299,1.402952 -2.60647,1.402952 -0.14348,0 -0.26088,-1.68067 -0.26088,-3.73483 z m -24.76877,-4.576552 c 0.75624,-0.461141 1.99205,-1.157519 2.7462,-1.547516 l 1.37118,-0.709066 v 1.54916 1.549144 l -2.7462,-0.0016 -2.74618,-0.0016 z m -10.47776,-10.06064 -0.12444,-4.6960005 -5.71209,-0.2197096 -5.71209,-0.219693 2.51985,-1.4280027 c 2.49927,-1.4163661 2.56832,-1.4280242 8.45828,-1.4280242 h 5.93844 v 4.7819267 4.7819633 l -2.62176,1.561765 -2.62176,1.561781 z"
       id="path1" /></g></svg>
