<?xml version="1.0" encoding="iso-8859-1"?>
<!-- Generator: Adobe Illustrator 27.3.1, SVG Export Plug-In . SVG Version: 6.00 Build 0)  -->
<svg version="1.1" id="Lager_1" xmlns="http://www.w3.org/2000/svg" xmlns:xlink="http://www.w3.org/1999/xlink" x="0px" y="0px"
	 viewBox="0 0 182.928 37.816" style="enable-background:new 0 0 182.928 37.816;" xml:space="preserve">
<style><![CDATA[path:not([style]){fill:#f2f6fc;}]]></style>
<g>
	<g>
		<path style="fill-rule:evenodd;clip-rule:evenodd;fill:#0090D4;" d="M12.663,0c-2.557,0-4.637,2.08-4.637,4.637
			s2.08,4.637,4.637,4.637c2.557,0,4.637-2.08,4.637-4.637S15.219,0,12.663,0z"/>
		<path style="fill-rule:evenodd;clip-rule:evenodd;fill:#9FC63B;" d="M23.932,0c-2.557,0-4.637,2.08-4.637,4.637
			s2.08,4.637,4.637,4.637s4.637-2.08,4.637-4.637S26.489,0,23.932,0z"/>
		<g>
			<path style="fill:#0090D4;" d="M7.768,27.463C7.58,27.468,7.395,27.47,7.214,27.47c-1.26,0-2.433-0.109-3.363-0.275
				c0.276,0.915,0.716,1.789,1.146,2.613c2.009,3.364,5.635,5.436,9.572,5.436c4.944,0,9.261-3.46,10.709-8.083l0,0
				c-1.524,2.307-4.173,3.69-6.955,3.69c-2.862,0-5.481-1.459-6.992-3.85C10.195,27.276,9.005,27.433,7.768,27.463z"/>
			<path style="fill:#0090D4;" d="M24.059,17.996l-6.252-6.225c0,0-0.919-0.832-1.68-1.201c-0.705-0.341-1.848-0.776-3.561-0.776
				c-6.137,0-8.35,6.876-8.785,8.329c0.995,0.419,2.194,0.762,3.457,0.762c2.645,0,4.178-1.137,4.598-1.499
				c0.403-0.366,0.787-0.436,1.043-0.411c0.492,0.049,0.851,0.461,0.98,0.585l5.236,5.211c1.058,1.034,3.611,2.817,6.428,3.459
				c0.144-0.717,0.277-1.679,0.277-2.432C25.8,19.645,24.059,17.996,24.059,17.996z"/>
			<path style="fill:#0090D4;" d="M36.497,24.878c0.101-0.573,0.356-2.386-0.027-4.415c-0.313-1.662-0.609-2.504-0.792-2.907
				c-0.371,0.245-1.149,0.758-1.92,1.185c0.28,1.285,0.425,2.656,0.425,4.102c0,1.072-0.094,2.119-0.277,3.133
				C35.213,25.586,36.181,25.055,36.497,24.878z"/>
		</g>
		<g>
			<path style="fill:#9FC63B;" d="M0.125,24.842c0.543,0.382,2.863,1.791,7.415,1.747c3.866-0.038,7.421-1.279,10.045-3.756
				l-4.493-4.569c0,0-0.053-0.059-0.143-0.145c-0.069-0.065-0.16-0.12-0.238-0.121c-0.062-0.001-0.149,0.036-0.21,0.077
				c-0.073,0.049-0.138,0.102-0.138,0.102c-0.607,0.511-2.332,1.696-5.231,1.653c-2.783-0.042-5.183-1.527-6.151-2.216
				c-0.216,0.487-0.544,1.384-0.776,2.736C-0.151,22.426,0.048,24.28,0.125,24.842z"/>
		</g>
	</g>
	<g>
		<path style="fill:#9FC63B;" d="M28.958,33.672c2.892-2.767,4.485-6.669,4.485-10.986c0-2.108-0.298-3.891-0.785-5.399
			c-0.489-1.296-3.105-7.493-8.401-7.493c-1.975,0-3.331,0.554-4.121,1.019c-0.51,0.3-0.856,0.602-1.054,0.799l5.663,5.667
			c0.319,0.318,1.968,2.046,1.968,6.519c0,6.699-5.561,12.359-12.143,12.359c-1.731,0-3.406-0.372-4.931-1.055
			c2.452,1.722,5.432,2.714,8.616,2.714C22.363,37.816,26.164,36.344,28.958,33.672z"/>
	</g>
</g>
<g>
	<path d="M46.36,12.395h2.854c2.303,0,4.523,0.367,4.523,3.154c0,1.419-1.051,2.421-2.404,2.654v0.033
		c0.518,0.201,0.768,0.451,1.135,1.169l2.204,4.641H52.77l-1.787-4.04c-0.517-1.135-1.068-1.135-1.953-1.135h-1.002v5.175H46.36
		V12.395z M48.029,17.403h1.419c1.586,0,2.521-0.701,2.521-1.82c0-1.051-0.801-1.719-2.337-1.719h-1.603V17.403z"/>
	<path d="M62.223,23.696c-0.601,0.217-1.285,0.551-2.688,0.551c-3.021,0-4.407-1.836-4.407-4.607c0-2.521,1.585-4.307,3.989-4.307
		c2.838,0,3.756,2.07,3.756,4.808h-6.077c0,1.687,1.319,2.838,2.805,2.838c1.035,0,2.237-0.534,2.621-0.852V23.696z M61.205,18.971
		c0-1.302-0.768-2.37-2.12-2.37c-1.536,0-2.17,1.269-2.287,2.37H61.205z"/>
	<path d="M72.343,23.679c0,2.587-1.135,4.073-4.191,4.073c-0.901,0-1.886-0.117-3.255-0.584l0.167-1.453
		c1.202,0.551,1.919,0.769,3.071,0.769c1.653,0,2.638-1.119,2.638-2.922v-0.834h-0.033c-0.668,0.885-1.77,1.318-2.855,1.318
		c-2.437,0-3.639-1.986-3.639-4.19c0-2.187,1.235-4.523,3.806-4.523c1.502,0,2.337,0.551,2.805,1.469h0.033v-1.269h1.453V23.679z
		 M70.774,19.89c0-1.77-0.818-3.289-2.487-3.289c-1.586,0-2.371,1.72-2.371,3.172c0,1.603,0.901,3.005,2.371,3.005
		S70.774,21.476,70.774,19.89z"/>
	<path d="M76.387,13.63h-1.77v-1.769h1.77V13.63z M74.717,15.533h1.569v8.514h-1.569V15.533z"/>
	<path d="M82.515,15.333c2.587,0,4.324,1.87,4.324,4.457c0,2.438-1.77,4.457-4.324,4.457c-2.57,0-4.34-2.02-4.34-4.457
		C78.175,17.203,79.911,15.333,82.515,15.333z M82.515,22.978c1.836,0,2.654-1.669,2.654-3.188c0-1.619-0.985-3.188-2.654-3.188
		c-1.686,0-2.671,1.569-2.671,3.188C79.844,21.309,80.662,22.978,82.515,22.978z"/>
	<path d="M88.495,15.533h1.519v1.353h0.033c0.468-0.969,1.603-1.553,2.788-1.553c2.204,0,3.188,1.369,3.188,3.656v5.058h-1.569
		v-4.407c0-1.986-0.434-2.954-1.803-3.038c-1.786,0-2.587,1.436-2.587,3.506v3.939h-1.569V15.533z"/>
	<path d="M108.933,12.194c3.539,0,5.609,2.571,5.609,6.026c0,3.539-2.053,6.026-5.609,6.026s-5.609-2.487-5.609-6.026
		C103.324,14.765,105.394,12.194,108.933,12.194z M108.933,22.778c2.688,0,3.839-2.237,3.839-4.558c0-2.37-1.269-4.573-3.839-4.557
		c-2.571-0.017-3.839,2.187-3.839,4.557C105.093,20.541,106.245,22.778,108.933,22.778z M106.779,9.758h1.569v1.669h-1.569V9.758z
		 M109.517,9.758h1.569v1.669h-1.569V9.758z"/>
	<path d="M116.433,15.533h1.469v1.319h0.034c0.417-0.885,1.319-1.52,2.22-1.52c0.467,0,0.701,0.05,1.035,0.117v1.402
		c-0.284-0.117-0.601-0.15-0.868-0.15c-1.402,0-2.32,1.335-2.32,3.472v3.873h-1.569V15.533z"/>
	<path d="M128.955,23.696c-0.601,0.217-1.285,0.551-2.688,0.551c-3.021,0-4.407-1.836-4.407-4.607c0-2.521,1.585-4.307,3.989-4.307
		c2.838,0,3.756,2.07,3.756,4.808h-6.077c0,1.687,1.319,2.838,2.805,2.838c1.035,0,2.237-0.534,2.621-0.852V23.696z M127.937,18.971
		c0-1.302-0.768-2.37-2.12-2.37c-1.536,0-2.17,1.269-2.287,2.37H127.937z"/>
	<path d="M131.546,11.527h1.569v5.175h0.033c0.484-0.785,1.335-1.369,2.821-1.369c2.47,0,3.672,2.02,3.672,4.307
		c0,2.337-1.085,4.607-3.656,4.607c-1.519,0-2.487-0.768-2.905-1.402h-0.033v1.202h-1.502V11.527z M135.636,16.601
		c-1.703,0-2.521,1.619-2.521,3.205c0,1.419,0.734,3.172,2.504,3.172c1.686,0,2.387-1.887,2.354-3.222
		C138.007,18.22,137.339,16.601,135.636,16.601z"/>
	<path d="M141.499,15.533h1.469v1.319h0.033c0.417-0.885,1.318-1.52,2.22-1.52c0.468,0,0.701,0.05,1.035,0.117v1.402
		c-0.283-0.117-0.601-0.15-0.868-0.15c-1.402,0-2.32,1.335-2.32,3.472v3.873h-1.569V15.533z"/>
	<path d="M151.267,15.333c2.587,0,4.323,1.87,4.323,4.457c0,2.438-1.77,4.457-4.323,4.457c-2.571,0-4.341-2.02-4.341-4.457
		C146.926,17.203,148.663,15.333,151.267,15.333z M151.267,22.978c1.836,0,2.654-1.669,2.654-3.188c0-1.619-0.985-3.188-2.654-3.188
		c-1.687,0-2.671,1.569-2.671,3.188C148.596,21.309,149.414,22.978,151.267,22.978z"/>
	<path d="M162.374,11.527h1.568v12.52h-1.568V11.527z"/>
	<path d="M166.865,16.135c0.784-0.468,1.719-0.802,2.804-0.802c2.438,0,3.423,1.202,3.423,3.522v3.522
		c0,0.968,0.033,1.419,0.066,1.669h-1.469v-1.102h-0.033c-0.367,0.518-1.202,1.302-2.638,1.302c-1.836,0-3.122-0.801-3.122-2.654
		c0-2.137,2.337-2.805,3.957-2.805c0.617,0,1.051,0,1.669,0.034c0-1.47-0.534-2.221-2.104-2.221c-0.885,0-1.836,0.334-2.471,0.868
		L166.865,16.135z M171.523,19.99c-0.334,0-0.668-0.033-1.002-0.033c-0.852,0-2.954,0.134-2.954,1.636
		c0,0.901,0.868,1.386,1.586,1.386c1.552,0,2.37-0.968,2.37-2.237V19.99z M167.616,12.561h1.569v1.67h-1.569V12.561z
		 M170.354,12.561h1.569v1.67h-1.569V12.561z"/>
	<path d="M175.399,15.533h1.52v1.353h0.033c0.468-0.969,1.603-1.553,2.788-1.553c2.203,0,3.188,1.369,3.188,3.656v5.058h-1.569
		v-4.407c0-1.986-0.434-2.954-1.803-3.038c-1.786,0-2.588,1.436-2.588,3.506v3.939h-1.569V15.533z"/>
</g>
</svg>
