<?xml version="1.0" encoding="UTF-8" standalone="no"?>
<!-- Created with Inkscape (http://www.inkscape.org/) -->

<svg
   width="210mm"
   height="297mm"
   viewBox="0 0 210 297"
   version="1.1"
   id="svg1"
   xml:space="preserve"
   inkscape:version="1.4 (e7c3feb1, 2024-10-09)"
   sodipodi:docname="powerminds bw.svg"
   xmlns:inkscape="http://www.inkscape.org/namespaces/inkscape"
   xmlns:sodipodi="http://sodipodi.sourceforge.net/DTD/sodipodi-0.dtd"
   xmlns="http://www.w3.org/2000/svg"
   xmlns:svg="http://www.w3.org/2000/svg"><sodipodi:namedview
     id="namedview1"
     pagecolor="#ffffff"
     bordercolor="#000000"
     borderopacity="0.25"
     inkscape:showpageshadow="2"
     inkscape:pageopacity="0.0"
     inkscape:pagecheckerboard="0"
     inkscape:deskcolor="#d1d1d1"
     inkscape:document-units="mm"
     inkscape:window-width="1712"
     inkscape:window-height="1045"
     inkscape:window-x="0"
     inkscape:window-y="39"
     inkscape:window-maximized="1"
     inkscape:current-layer="layer1" /><defs
     id="defs1" /><g
     inkscape:label="Layer 1"
     inkscape:groupmode="layer"
     id="layer1"><path
       style="fill:#ffffff"
       d="m 100.88801,48.265717 c 0,-0.3519 3.30127,-0.398067 28.46476,-0.398067 22.65421,0 28.44225,0.06751 28.35452,0.330729 -0.0871,0.261279 -6.06443,0.34487 -28.46476,0.398067 -25.09519,0.0596 -28.35452,0.02158 -28.35452,-0.330729 z m -55.827079,-0.911616 c -0.363802,-0.125099 -1.494896,-0.239767 -2.513542,-0.254816 -1.374689,-0.02031 -2.09078,-0.17046 -2.778125,-0.582517 -3.025724,-1.813895 -4.457476,-5.053404 -4.151247,-9.392697 0.262846,-3.724567 1.115867,-4.652266 4.475066,-4.866838 l 2.071072,-0.132291 -0.427533,-0.607926 c -0.332792,-0.47321 -0.507797,-0.541313 -0.789733,-0.307327 -0.464643,0.38562 -1.956053,0.07242 -2.157725,-0.453129 -0.08283,-0.215844 0.03039,-0.573427 0.251594,-0.79463 0.324773,-0.324773 0.514729,-0.341957 0.986865,-0.08928 0.321573,0.172101 0.858832,0.244102 1.193908,0.160003 0.413062,-0.103672 0.660595,-0.01905 0.768754,0.262805 0.128201,0.334089 0.295184,0.254489 0.850451,-0.405408 0.38001,-0.451617 1.183841,-1.04392 1.78629,-1.31623 3.248879,-1.468506 3.70082,-1.560806 5.156923,-1.053206 1.657979,0.577975 0.832679,1.490909 -2.367722,2.619138 -1.222652,0.431019 -2.788551,0.860991 -3.479775,0.955495 -1.358596,0.185745 -1.441346,0.279256 -0.901026,1.018188 0.334354,0.457256 0.508528,0.465534 2.896588,0.137664 4.162915,-0.57155 6.650564,0.349697 8.40206,3.111519 0.694491,1.095099 0.781024,1.46225 0.781024,3.313808 0,1.145243 -0.123252,2.312558 -0.273893,2.594033 -0.270359,0.505171 0.400065,0.511772 51.977155,0.511772 h 52.25105 l 0.63376,-0.859895 c 0.34856,-0.472943 2.80571,-4.63786 5.46032,-9.255371 l 4.82657,-8.395474 0.77529,0.400921 c 0.61171,0.316327 0.72398,0.496697 0.53209,0.854849 -2.36143,4.407479 -10.08925,17.361174 -10.76737,18.04872 l -0.91334,0.926042 -52.80928,0.06872 c -47.005915,0.06117 -52.79152,0.02482 -52.64769,-0.330729 0.442086,-1.092855 0.400958,-1.224029 -0.100435,-0.320325 -0.803969,1.449061 -2.420878,2.971668 -4.011865,3.777883 -1.473689,0.746775 -3.824136,1.056234 -4.986529,0.656525 z m 6.179721,-2.418705 c 1.346431,-1.185176 3.083902,-4.027534 3.07514,-5.030672 -0.0044,-0.499804 -0.238512,-0.26768 -1.093202,1.083759 -0.598207,0.945886 -1.667269,2.395001 -2.375695,3.220256 -0.708426,0.825255 -1.288047,1.569396 -1.288047,1.653646 0,0.374523 0.543603,0.07489 1.681804,-0.926989 z m 2.281062,-6.804323 c 0.0069,-1.333114 -0.460194,-2.334622 -1.759663,-3.772978 -0.815978,-0.90319 -1.092549,-1.042528 -2.069302,-1.042528 -0.687336,0 -1.258087,0.157419 -1.462125,0.403268 -0.184075,0.221798 -0.287951,0.433689 -0.230834,0.470868 0.05712,0.03718 0.564791,0.277394 1.128165,0.533812 2.570573,1.169991 3.790066,2.834684 3.49971,4.777349 l -0.163026,1.090744 0.525596,-0.661458 c 0.337073,-0.424203 0.527706,-1.069505 0.531479,-1.799077 z m 12.176717,7.090744 c 0,-0.527139 0.176389,-0.529167 46.037499,-0.529167 45.86111,0 46.0375,0.002 46.0375,0.529167 0,0.527139 -0.17639,0.529167 -46.0375,0.529167 -45.86111,0 -46.037499,-0.002 -46.037499,-0.529167 z m 99.633249,-1.294395 c -0.21714,-0.351347 -0.435,0.05741 4.95067,-9.288939 5.04269,-8.751129 4.93797,-8.588109 5.2903,-8.235782 0.16136,0.16136 -1.54146,3.358873 -4.69096,8.808609 -2.71935,4.705414 -5.04133,8.65497 -5.15995,8.77679 -0.11862,0.12182 -0.29415,0.09451 -0.39006,-0.06068 z m -156.5186663,-1.219147 v -0.926042 h 13.4678673 13.467867 l 0.290467,0.833232 c 0.159756,0.458278 0.290466,0.874997 0.290466,0.926042 0,0.05104 -6.19125,0.09281 -13.758334,0.09281 h -13.7583333 z m 153.7697563,-0.09775 c -0.26523,-0.168163 0.73487,-2.106333 4.12783,-7.999595 7.24919,-12.591183 6.71959,-11.570697 6.16021,-11.870067 -0.32863,-0.175881 -1.19002,-0.135138 -2.6795,0.12674 -1.20734,0.212272 -2.23398,0.347142 -2.28141,0.299713 -0.0474,-0.04743 1.25411,-0.980639 2.89229,-2.073798 2.40656,-1.60589 3.53742,-2.60004 5.88895,-5.177062 1.60073,-1.754225 2.94277,-3.158222 2.98232,-3.119992 0.0395,0.03823 -0.478,2.081056 -1.1501,4.539615 -0.90727,3.318817 -1.28844,5.28705 -1.47996,7.642046 -0.14187,1.744566 -0.29111,3.205107 -0.33165,3.245646 -0.0405,0.04054 -0.46294,-0.933066 -0.93866,-2.163569 -0.47572,-1.230503 -1.01019,-2.293014 -1.18772,-2.361136 -0.17752,-0.06812 -0.50322,0.192487 -0.72377,0.579131 -5.54502,9.720738 -10.68601,18.561448 -10.79192,18.558313 -0.0753,-0.0022 -0.29439,-0.103921 -0.48691,-0.225985 z m -11.2525,-1.730289 c -2.26898,-0.623613 -3.32396,-2.239919 -3.34011,-5.117279 l -0.006,-1.124479 h 2.10405 2.10404 l 0.0788,1.653646 c 0.0708,1.48667 0.13905,1.662205 0.67572,1.738409 0.72907,0.103523 1.09769,-0.706117 0.94011,-2.064862 -0.11578,-0.998267 -0.36016,-1.251595 -3.25685,-3.376211 -2.11273,-1.549606 -2.64501,-2.521621 -2.64501,-4.830149 0,-2.272876 0.5628,-3.385682 2.11584,-4.183564 0.98651,-0.506822 1.50814,-0.595648 3.04271,-0.51812 3.38892,0.171211 4.63021,1.290506 4.63021,4.175149 v 1.342544 l -2.05052,-0.07728 -2.05052,-0.07728 -0.0838,-1.058334 c -0.10141,-1.280247 -0.40734,-1.661334 -0.96329,-1.199931 -0.41721,0.346246 -0.53914,1.476613 -0.24263,2.24929 0.091,0.237149 0.89467,0.91793 1.78593,1.512847 2.72515,1.819033 3.54398,2.749243 3.89085,4.420079 0.36366,1.751739 0.17471,4.056075 -0.40515,4.941056 -0.95702,1.460595 -4.01021,2.230389 -6.324,1.594459 z m -55.998505,-12.988633 v -13.096875 h 4.365625 c 2.40109,0 4.36562,0.104945 4.36562,0.23321 0,0.128266 0.35815,2.708922 0.7959,5.734791 0.7259,5.017696 1.04783,6.61186 1.06116,5.254742 0.003,-0.278915 0.29967,-2.828837 0.65984,-5.666493 0.36017,-2.837656 0.65558,-5.25155 0.65648,-5.36421 8.9e-4,-0.112659 1.99592,-0.17219 4.43339,-0.132291 l 4.43177,0.07254 0.0686,13.030729 0.0686,13.030729 h -3.0452 -3.0452 l -0.0284,-8.135937 -0.0284,-8.135938 -1.09608,8.069792 -1.09609,8.069792 -2.14194,0.07619 -2.14194,0.07618 -1.12155,-8.013686 c -0.61686,-4.407527 -1.17103,-8.063295 -1.2315,-8.123929 -0.0605,-0.06063 -0.10994,3.541007 -0.10994,8.003646 v 8.113889 h -2.910419 -2.910416 z m -73.025001,-0.301246 v -13.133538 l 5.093229,0.141758 c 6.428205,0.178915 7.744763,0.58068 8.877446,2.709068 0.556645,1.045973 0.781943,7.550606 0.331278,9.564389 -0.521255,2.329214 -2.134372,3.264158 -5.636849,3.267052 l -1.785937,0.0015 v 5.291667 5.291667 h -3.439584 -3.439583 z m 8.500416,-2.385252 c 0.432623,-0.52128 0.514866,-5.208246 0.09854,-5.615925 -0.14552,-0.142499 -0.592005,-0.339953 -0.992187,-0.438787 l -0.727604,-0.179697 v 3.335974 3.335975 h 0.629061 c 0.345984,0 0.792469,-0.196893 0.992188,-0.43754 z m 26.840803,14.526603 c -0.0877,-0.545704 -0.513194,-4.087813 -0.945535,-7.871355 -0.43234,-3.783542 -0.852694,-7.26612 -0.934118,-7.739062 l -0.148044,-0.859896 h 2.260948 c 1.974038,0 2.261898,0.05876 2.268443,0.463021 0.0085,0.525988 0.757611,9.917267 0.807247,10.120312 0.01779,0.07276 0.243011,-1.653646 0.500498,-3.836458 0.257486,-2.182813 0.554315,-4.593828 0.659619,-5.357813 l 0.191463,-1.389062 h 2.356422 c 2.065724,0 2.357101,0.05712 2.361929,0.463021 0.003,0.254661 0.179144,2.546614 0.391368,5.093229 0.212223,2.546614 0.401791,4.987396 0.421262,5.423958 0.01947,0.436563 0.256478,-1.230312 0.526684,-3.704166 0.270205,-2.473855 0.584983,-5.09323 0.699507,-5.820834 l 0.208225,-1.322917 2.181015,-0.07685 c 1.649727,-0.05813 2.177772,0.0063 2.167703,0.264583 -0.0073,0.187787 -0.454452,4.091899 -0.993623,8.675805 l -0.980311,8.334375 -2.819898,0.07486 -2.819898,0.07486 -0.156159,-0.736322 c -0.08589,-0.404978 -0.389052,-2.2694 -0.673698,-4.14316 -0.284647,-1.873761 -0.560037,-3.449336 -0.611979,-3.501278 -0.05194,-0.05194 -0.302931,1.540665 -0.557752,3.539129 -0.686884,5.386975 -0.281419,4.824194 -3.475672,4.824194 h -2.726185 z m 16.844229,-7.672917 0.06976,-8.665105 3.770312,-0.07341 3.770313,-0.07341 v 1.713852 1.713853 l -1.521354,0.07935 -1.521355,0.07935 v 1.5875 1.5875 l 1.389063,0.07997 1.389062,0.07997 v 1.559846 1.559846 l -1.389062,0.07997 -1.389063,0.07997 v 1.852084 1.852083 l 1.653646,0.07877 1.653646,0.07877 v 1.707167 1.707166 h -3.972365 -3.972366 z m 9.197886,-0.100062 v -8.765166 l 3.638021,0.117883 c 3.954824,0.128148 4.801781,0.367978 5.730892,1.622799 0.430233,0.581056 0.573026,1.227018 0.643362,2.910417 0.07931,1.898058 0.02012,2.25291 -0.482225,2.891212 -0.314943,0.400182 -0.751054,0.727604 -0.969134,0.727604 -0.243749,0 -0.03248,0.343324 0.54837,0.891137 l 0.944881,0.891137 v 3.739072 3.739071 h -2.116667 -2.116667 v -3.694858 c 0,-3.382208 -0.04331,-3.718033 -0.511772,-3.96875 -0.281475,-0.150641 -0.579132,-0.273892 -0.661459,-0.273892 -0.08233,0 -0.149686,1.785937 -0.149686,3.96875 v 3.96875 h -2.248958 -2.248958 z m 5.688541,-3.670251 c 0,-1.582047 -0.04768,-1.726563 -0.595312,-1.804339 -0.569665,-0.08091 -0.595313,-0.0032 -0.595313,1.804339 0,1.807509 0.02565,1.885245 0.595313,1.80434 0.547632,-0.07778 0.595312,-0.222292 0.595312,-1.80434 z m 28.442701,3.704167 v -8.73125 h 2.24896 2.24896 v 8.73125 8.73125 h -2.24896 -2.24896 z m 6.35,-0.01159 v -8.742842 l 1.88331,0.07774 1.8833,0.07774 1.22555,3.704167 1.22555,3.704167 0.0734,-3.770313 0.0734,-3.770312 h 1.84482 1.84482 v 8.73125 8.73125 h -1.97301 -1.97302 l -0.82111,-2.711979 c -1.62598,-5.370316 -1.53841,-5.31098 -1.56197,-1.058334 l -0.0209,3.770313 h -1.85208 -1.85209 z m 11.90625,-0.02629 v -8.769129 l 3.77032,0.138904 c 6.64097,0.244665 6.64969,0.2555 6.7649,8.403521 0.12758,9.023974 0.1487,8.994744 -6.50032,8.995422 l -4.0349,4.11e-4 z m 5.55625,5.600185 c 0.32379,-0.204307 0.41223,-1.137747 0.48024,-5.068741 0.0969,-5.604358 0.032,-6.049815 -0.88215,-6.049815 h -0.65642 v 5.688542 c 0,5.882949 0.0373,6.074282 1.05833,5.430014 z m -101.445533,-13.504765 c -0.758025,-3.232655 -0.784584,-3.434625 -0.451659,-3.434625 0.127582,0 0.495118,1.16086 0.816747,2.579688 0.321628,1.418828 0.646869,2.847578 0.722757,3.175 0.07589,0.327422 0.01598,0.595312 -0.133121,0.595312 -0.149104,0 -0.57873,-1.311919 -0.954724,-2.915375 z m 3.814291,1.811663 c 0,-0.2925 1.813105,-5.177218 2.037335,-5.488822 0.04363,-0.06063 0.154583,-0.03499 0.246558,0.05698 0.09197,0.09197 -0.287879,1.368956 -0.844119,2.837736 -0.947616,2.502233 -1.439774,3.388976 -1.439774,2.594103 z m -1.884854,-0.07559 c -0.143196,-0.143196 0.538847,-6.017681 0.720648,-6.206986 0.344579,-0.358803 0.370023,0.506433 0.08613,2.928691 -0.312844,2.669229 -0.530678,3.55439 -0.806773,3.278295 z"
       id="path1" /></g></svg>
