<?xml version="1.0" encoding="UTF-8" standalone="no"?>
<!-- Created with Inkscape (http://www.inkscape.org/) -->

<svg
   width="250mm"
   height="50mm"
   viewBox="0 0 250 50"
   version="1.1"
   id="svg1"
   xml:space="preserve"
   inkscape:version="1.4 (e7c3feb1, 2024-10-09)"
   sodipodi:docname="logotyp örebro region.svg"
   xmlns:inkscape="http://www.inkscape.org/namespaces/inkscape"
   xmlns:sodipodi="http://sodipodi.sourceforge.net/DTD/sodipodi-0.dtd"
   xmlns="http://www.w3.org/2000/svg"
   xmlns:svg="http://www.w3.org/2000/svg"><sodipodi:namedview
     id="namedview1"
     pagecolor="#ffffff"
     bordercolor="#000000"
     borderopacity="0.25"
     inkscape:showpageshadow="2"
     inkscape:pageopacity="0.0"
     inkscape:pagecheckerboard="0"
     inkscape:deskcolor="#d1d1d1"
     inkscape:document-units="mm"
     showgrid="false"
     inkscape:window-width="1712"
     inkscape:window-height="1045"
     inkscape:window-x="104"
     inkscape:window-y="58"
     inkscape:window-maximized="0"
     inkscape:current-layer="layer1" /><defs
     id="defs1" /><g
     inkscape:label="Layer 1"
     inkscape:groupmode="layer"
     id="layer1"><g
       id="g36"><path
         id="path3"
         style="fill:#ffffff;stroke-width:3.73862"
         d="m 86.712208,36.368849 c -0.906016,-0.261704 -1.028717,-0.428109 -1.028717,-1.39585 0,-0.604348 0.05346,-1.098817 0.118514,-1.098817 0.06505,0 0.724058,0.213849 1.464192,0.474804 3.36225,1.186263 6.0142,-0.07664 6.0142,-2.863743 0,-0.931962 0.102064,-0.921681 -1.424413,-0.143189 -1.955446,0.99694 -3.916163,0.734937 -5.487915,-0.733292 -2.51194,-2.346543 -2.030107,-7.706224 0.865826,-9.630714 1.274756,-0.847133 3.694538,-0.965124 5.081752,-0.24787 0.802793,0.415136 0.923775,0.412892 1.089956,-0.01869 0.127487,-0.332737 0.514023,-0.4557 1.217892,-0.387845 l 1.030924,0.09945 -0.0075,6.330749 c -0.0075,7.415733 -0.256469,8.350836 -2.502555,9.370992 -1.409496,0.640163 -4.640446,0.763575 -6.433897,0.245627 z m 4.499799,-6.743007 c 3.175881,-1.326947 2.467973,-7.463512 -0.860966,-7.463512 -2.101925,0 -3.23824,1.628204 -3.015007,4.320121 0.164499,1.984009 1.094517,3.210238 2.709974,3.57322 0.04897,0.01122 0.57384,-0.182445 1.165999,-0.429829 z m -14.352661,2.363404 c -1.552984,-0.38848 -2.630155,-1.285224 -3.461585,-2.881726 -0.95088,-1.825903 -0.880445,-5.164861 0.137954,-6.539476 1.185404,-1.600053 2.568318,-2.305119 4.518567,-2.303848 3.104024,0.0021 4.657943,1.534665 5.009485,4.940769 l 0.176089,1.705333 h -4.000956 c -2.324597,0 -4.000992,0.126365 -4.000992,0.301706 0,0.165995 0.170107,0.67512 0.378161,1.131605 0.739797,1.623681 3.253643,2.207017 5.487915,1.273485 l 1.097695,-0.458654 v 1.080573 c 0,0.722525 -0.191791,1.18316 -0.578289,1.390092 -0.862536,0.461607 -3.547162,0.664614 -4.763932,0.360403 z m 3.759553,-7.625619 c 0,-1.0427 -1.393794,-2.201372 -2.648025,-2.201372 -0.833188,0 -1.289599,0.232168 -1.913611,0.973872 -1.390093,1.652057 -1.167682,1.874954 1.871065,1.874954 2.49949,0 2.690571,-0.04599 2.690571,-0.647454 z m 26.855751,7.619263 c -2.69696,-0.814756 -4.14399,-2.661259 -4.31458,-5.505823 -0.22582,-3.767142 2.0159,-6.19829 5.72543,-6.208833 2.72376,-0.0075 4.40113,1.089022 5.4294,3.549966 1.36478,3.266392 -0.51013,7.208988 -3.87227,8.142745 -1.34568,0.373861 -1.79256,0.377039 -2.96798,0.02243 z m 3.65615,-2.821534 c 2.28119,-2.381012 0.81666,-6.999101 -2.21958,-6.999101 -2.20549,0 -3.67667,2.407893 -3.15854,5.169684 0.49874,2.65853 3.57969,3.706577 5.37812,1.829417 z m 31.37095,2.926141 c -1.80164,-0.437904 -2.8,-0.87865 -3.69345,-1.630448 -2.51852,-2.119198 -3.30707,-7.14188 -1.64492,-10.477399 2.66889,-5.355792 10.5401,-5.355792 13.20898,0 1.5915,3.193714 0.90381,8.179421 -1.42318,10.318283 -1.39229,1.279729 -4.7317,2.206607 -6.44743,1.789564 z m 4.11551,-3.090976 c 1.33252,-0.873117 1.88546,-2.315026 1.89238,-4.935049 0.004,-1.947408 -0.12712,-2.588693 -0.73647,-3.568697 -0.92628,-1.489876 -2.12866,-2.128955 -4.0053,-2.128955 -1.87663,0 -3.07901,0.639079 -4.00525,2.128955 -0.95473,1.535562 -1.051,5.348989 -0.17609,6.968483 1.29236,2.39178 4.61577,3.11752 7.03062,1.535263 z m 18.23914,2.977696 c -4.58433,-1.082367 -5.67365,-8.325077 -1.65385,-10.996431 0.79677,-0.5295 1.53515,-0.714449 2.84882,-0.71359 3.10403,0.0021 4.65791,1.534665 5.00945,4.940769 l 0.17609,1.705333 h -4.00099 c -4.56153,0 -4.8254,0.188426 -2.92476,2.089139 0.87667,0.876668 1.31876,1.076236 2.38419,1.076236 0.71939,0 1.80194,-0.206372 2.40565,-0.458654 l 1.09773,-0.458653 v 1.223761 c 0,1.213817 -0.0112,1.226528 -1.59825,1.566518 -1.78979,0.383844 -2.21427,0.386722 -3.744,0.02617 z m 3.75959,-7.61059 c 0,-1.0427 -1.39379,-2.201372 -2.64806,-2.201372 -0.83315,0 -1.28956,0.232168 -1.91357,0.973872 -1.39013,1.652057 -1.16769,1.874954 1.87106,1.874954 2.49945,0 2.69057,-0.04599 2.69057,-0.647454 z m 9.0974,7.485683 c -0.65452,-0.239272 -1.40232,-0.611189 -1.66181,-0.826534 -0.39286,-0.326007 -0.47182,-0.279274 -0.47182,0.280397 0,0.556792 -0.18955,0.671866 -1.10786,0.671866 h -1.10787 v -8.388222 -8.388222 h 1.26612 1.26616 v 3.015232 3.015232 l 0.93387,-0.482955 c 1.35424,-0.70028 3.98858,-0.622405 5.24666,0.155153 1.52405,0.941907 2.21009,2.572467 2.19528,5.217837 -0.007,1.658713 -0.18917,2.552317 -0.71531,3.554528 -1.09545,2.086297 -3.56873,3.007268 -5.84342,2.175837 z m 2.66205,-2.115684 c 0.80683,-0.43181 1.53507,-2.146601 1.53507,-3.614681 0,-3.03213 -2.20511,-4.831676 -4.44906,-3.630795 -2.02757,1.085133 -2.07,6.07585 -0.0617,7.245626 0.73176,0.426202 2.17909,0.426128 2.9756,-1.5e-4 z m 17.83667,2.263808 c -1.44493,-0.348813 -2.27177,-0.87951 -3.12331,-2.00517 -2.15827,-2.852976 -1.63673,-6.83049 1.16817,-8.908787 1.35113,-1.001127 5.34158,-0.956039 6.78948,0.07664 1.4674,1.046625 2.28773,2.824711 2.28773,4.958789 0,3.039607 -1.47066,5.041973 -4.27324,5.818222 -1.39794,0.387208 -1.48632,0.389078 -2.84883,0.06019 z m 3.02462,-2.247694 c 0.92721,-0.496227 1.56517,-2.005544 1.56517,-3.702913 0,-2.390771 -1.24021,-3.857692 -3.27577,-3.874515 -3.13222,-0.02617 -4.50021,5.205425 -1.89679,7.25329 0.89218,0.701776 2.61288,0.856405 3.60739,0.324138 z m 20.12767,2.230047 c -1.28968,-0.4062 -2.05546,-1.198451 -2.45837,-2.543194 -0.28526,-0.951702 -0.25422,-1.371399 0.166,-2.257264 0.74211,-1.563901 2.1011,-2.243806 4.83567,-2.419296 1.27476,-0.08188 2.31772,-0.281892 2.31772,-0.444485 0,-0.441082 -0.67807,-1.645253 -1.07612,-1.911068 -0.60054,-0.400967 -2.84031,-0.25946 -3.79814,0.240019 -1.05365,0.549502 -0.98572,0.580345 -1.26279,-0.573878 -0.18955,-0.788923 -0.0942,-0.932 0.89491,-1.345266 1.43971,-0.601544 4.38966,-0.592197 5.56904,0.01869 1.56869,0.811205 1.85178,1.800929 1.90913,6.674889 l 0.0516,4.39852 -0.98778,0.09945 c -0.66229,0.06655 -1.0489,-0.05982 -1.17321,-0.383769 -0.16151,-0.420781 -0.27367,-0.425455 -0.8683,-0.03739 -0.90605,0.592944 -2.99455,0.838198 -4.11965,0.483814 z m 3.42259,-2.100766 c 0.61866,-0.237402 1.43858,-1.740064 1.43858,-2.636472 0,-0.556493 -0.19964,-0.6488 -1.40381,-0.6488 -1.87443,0 -2.95882,0.452074 -3.39833,1.416786 -0.30096,0.660427 -0.26507,0.904708 0.21123,1.430769 0.5716,0.631565 2.09564,0.843208 3.15236,0.437717 z m -157.660722,-7.385076 c 1.803808,-0.685812 1.808182,-2.936871 0.0075,-3.689379 -0.580159,-0.242263 -1.629177,-0.440746 -2.33114,-0.440746 h -1.276326 v 2.215766 2.215729 h 1.403813 c 0.772099,0 1.760514,-0.135712 2.196512,-0.301333 z m 31.359031,9.073623 c -0.08599,-0.223944 -0.117018,-2.823553 -0.06916,-5.776761 l 0.08711,-5.369514 h 1.107864 1.107857 l 0.0864,5.776798 0.0864,5.776799 h -1.124948 c -0.625097,0 -1.194414,-0.180949 -1.281262,-0.407322 z m 18.218731,-5.448623 v -5.855908 h 1.10786 c 0.89413,0 1.1079,0.121132 1.1079,0.628425 0,0.626629 0.003,0.626629 1.02872,0.0012 1.23457,-0.752695 3.669,-0.835543 4.95849,-0.168611 1.5596,0.806494 1.92617,2.128581 1.92617,6.946424 v 4.304569 h -1.07608 -1.07609 l -0.11104,-4.050343 c -0.13122,-4.797991 -0.51903,-5.762292 -2.31629,-5.762292 -1.43429,0 -2.65592,1.086031 -3.02649,2.69057 -0.16076,0.696355 -0.29572,2.583721 -0.29983,4.194093 l -0.007,2.927972 h -1.1079 -1.10787 z m 36.85857,5.448623 c -0.086,-0.223944 -0.11702,-2.823553 -0.0692,-5.776761 l 0.0871,-5.369514 1.02875,-0.09907 c 0.9145,-0.08823 1.02872,-0.01122 1.02872,0.697813 v 0.796998 l 0.77696,-0.776922 c 0.59702,-0.59702 1.11018,-0.776959 2.21576,-0.776959 1.41903,0 1.43881,0.01495 1.43881,1.053056 0,0.980041 -0.0632,1.043784 -0.9108,0.919363 -0.68237,-0.100195 -1.17849,0.105429 -1.97836,0.81943 l -1.06757,0.953086 -0.10505,3.983458 -0.10506,3.983459 h -1.09201 c -0.60057,0 -1.1623,-0.183192 -1.24829,-0.407322 z m 33.09596,-5.448623 v -5.855908 h 0.97921 c 0.71042,0 1.02435,0.172351 1.1435,0.628051 0.16375,0.626368 0.16637,0.626368 0.96265,0 0.5233,-0.411622 1.28145,-0.628051 2.20022,-0.628051 1.3908,0 1.40101,0.0075 1.30257,1.028756 -0.0905,0.938991 -0.18319,1.020343 -1.06349,0.932485 -1.28145,-0.12786 -2.56357,0.907176 -2.97971,2.405539 -0.17908,0.644911 -0.32638,2.561401 -0.32751,4.258845 l -0.002,3.086228 h -1.10787 -1.10786 z m 27.53865,-2.532277 v -8.388222 h 1.10786 1.10786 v 8.388222 8.388222 h -1.10786 -1.10786 z m 17.09295,2.532277 v -5.855908 h 1.10787 c 0.99637,0 1.10835,0.08748 1.11272,0.870463 0.003,0.478767 0.10954,0.719795 0.2374,0.535594 0.96883,-1.39514 3.96697,-1.864635 5.81258,-0.910241 1.51391,0.782866 1.85858,2.068502 1.85858,6.932629 v 4.283408 h -1.07684 -1.07679 l -0.11029,-4.240451 c -0.12525,-4.825695 -0.4412,-5.572184 -2.35735,-5.572184 -2.33177,0 -3.29222,2.136507 -3.29222,7.323539 v 2.489096 h -1.10787 -1.10786 z m -10.12918,-8.388185 c 0,-1.236024 0.0262,-1.266157 1.1079,-1.266157 1.08147,0 1.10786,0.02991 1.10786,1.266157 0,1.235987 -0.0262,1.26612 -1.10786,1.26612 -1.08151,0 -1.1079,-0.02991 -1.1079,-1.26612 z m 3.48192,0 c 0,-1.236024 0.0262,-1.266157 1.10787,-1.266157 1.0815,0 1.10786,0.02991 1.10786,1.266157 0,1.235987 -0.0262,1.26612 -1.10786,1.26612 -1.08151,0 -1.10787,-0.02991 -1.10787,-1.26612 z m -126.297986,-0.949608 v -1.266158 h 1.266158 1.266158 v 1.266158 1.266119 h -1.266158 -1.266158 z m 42.475886,-2.769717 c 0.0931,-1.126857 0.1544,-1.187011 1.20615,-1.187011 1.05171,0 1.11284,0.06019 1.20611,1.187011 l 0.0983,1.187011 h -1.30433 -1.30436 z m 3.48192,0 c 0.0931,-1.126857 0.1544,-1.187011 1.20611,-1.187011 1.05172,0 1.11284,0.06019 1.20612,1.187011 l 0.0983,1.187011 h -1.30437 -1.30437 z m -83.166725,17.561217 c -0.08487,-0.221326 -0.115897,-3.746655 -0.06916,-7.834271 l 0.08524,-7.432034 3.32363,0.01869 c 4.03079,0.02243 5.51446,0.573616 6.243976,2.319588 0.86863,2.078932 -0.07814,4.708339 -1.904339,5.287937 -0.343579,0.109167 -0.481235,0.289368 -0.305819,0.401078 0.291986,0.185436 3.879488,7.100605 3.879488,7.477869 0,0.0901 -0.618479,0.163752 -1.374353,0.163752 h -1.374353 l -1.211947,-2.769717 c -1.549059,-3.540134 -2.124656,-4.194092 -3.691398,-4.194092 h -1.210975 v 3.481885 3.481924 h -1.117809 c -0.614779,0 -1.187273,-0.180949 -1.27214,-0.402238 z" /><path
         id="path2"
         style="fill:#0090d4;fill-opacity:1;stroke-width:3.73862"
         d="m 14.636725,45.866692 c -4.212337,-1.44849 -7.4973096,-4.580778 -9.1117565,-8.688246 l -0.505274,-1.285523 3.534563,0.126739 c 1.9440055,0.06991 4.1571545,-0.01869 4.9181125,-0.192913 l 1.38355,-0.319652 1.623532,1.650974 c 2.469431,2.511153 4.134087,3.194423 7.795988,3.199993 2.702534,0.0037 3.192741,-0.08935 4.840013,-0.923214 1.008081,-0.510283 2.396902,-1.539637 3.086228,-2.287472 1.466884,-1.591379 1.568724,-1.345079 0.416669,1.007781 -1.751804,3.57767 -5.271524,6.618997 -9.004758,7.780922 -2.628023,0.817934 -6.483396,0.788175 -8.976867,-0.06916 z m -10.0624493,-11.219514 c -0.999295,-0.242262 -2.3791063,-0.727161 -3.066264,-1.077731 -1.08655419,-0.554324 -1.27602728,-0.814906 -1.45364896,-1.999487 -0.20786709,-1.387213 0.2067455,-5.158244 0.79535332,-7.22955 l 0.32563354,-1.145549 2.6079843,1.303805 c 2.5584476,1.279055 2.6712043,1.303842 5.9316519,1.303842 3.3798592,0 4.1113942,-0.195903 6.5687872,-1.757561 0.68226,-0.433604 0.851956,-0.313296 3.95669,2.808524 l 3.243848,3.261569 -1.068459,0.906989 c -1.6832,1.428936 -4.532736,2.812897 -7.191902,3.492989 -2.903747,0.742639 -7.8761441,0.804364 -10.6494874,0.131973 z m 27.7561263,-0.284508 c -3.116848,-0.935215 -5.312425,-2.494256 -10.16014,-7.214372 -2.637631,-2.568242 -4.947386,-4.669495 -5.132709,-4.669495 -0.185436,0 -1.013614,0.429081 -1.840596,0.953535 -0.826982,0.524453 -2.007077,1.093433 -2.622415,1.2644 -1.504382,0.41794 -4.6274733,0.354794 -6.1833734,-0.124496 -1.5713032,-0.484301 -1.5699199,-0.985126 0.011216,-4.215627 2.6636896,-5.440585 7.0946604,-8.174859 11.9635364,-7.382459 2.831478,0.460859 4.222879,1.422244 9.286985,6.416886 5.213239,5.14172 5.818634,6.062205 6.412513,9.749789 0.310679,1.929239 0.153283,5.256944 -0.259834,5.49558 -0.106177,0.06131 -0.770043,-0.06206 -1.475632,-0.273667 z m 12.590951,-3.419489 c 0.01869,-1.956941 -0.06991,-4.154687 -0.200016,-4.883904 -0.232542,-1.301974 -0.212728,-1.340818 1.083937,-2.159463 0.726338,-0.458504 1.396672,-0.757593 1.489614,-0.664651 0.09309,0.09309 0.434465,1.278383 0.758977,2.634267 0.902614,3.771815 0.725815,6.990989 -0.409603,7.457942 -0.231047,0.09496 -0.946356,0.397976 -1.589735,0.673287 l -1.169813,0.500638 z m -30.616804,-19.032811 c -1.387737,-0.605694 -3.252297,-2.8154031 -3.502934,-4.1513978 -0.9127088,-4.8650619 2.746126,-8.53081298 7.604907,-7.61930084 2.338654,0.43872667 4.58889,3.39929984 4.58889,6.03749214 0,1.4984749 -0.866985,3.5210292 -1.927032,4.4955375 -1.702118,1.564798 -4.740492,2.120767 -6.763831,1.237669 z" /><path
         id="path1"
         style="fill:#9fc53a;fill-opacity:1;stroke-width:3.73862"
         d="m 19.9038,49.53349 c -2.105402,-0.457084 -6.160716,-2.181221 -6.722444,-2.858098 -0.217587,-0.262451 0.352552,-0.184688 1.66204,0.225812 2.281752,0.715646 6.054727,0.83588 8.189552,0.260956 5.319005,-1.432264 9.681036,-5.73186 11.554232,-11.38891 0.849115,-2.564318 0.77109,-6.801367 -0.177958,-9.65438 -0.694523,-2.088354 -0.980004,-2.463001 -4.964397,-6.515624 -3.94697,-4.014564 -4.190503,-4.332346 -3.669789,-4.789018 1.311245,-1.149961 2.815964,-1.632617 5.512478,-1.768291 2.41425,-0.121505 2.941581,-0.04524 4.447347,0.644276 3.006297,1.376334 6.049157,5.092407 7.602739,9.28478 0.59945,1.617624 0.697588,2.535455 0.708505,6.6258 0.01496,5.125868 -0.237028,6.341554 -2.05579,9.970891 -3.849878,7.682184 -13.187523,11.893699 -22.086701,9.961656 z m 9.088166,-37.814164 c -1.571191,-0.830421 -3.060805,-2.6152743 -3.315442,-3.9725417 -0.764622,-4.0758773 1.630074,-7.3964045 5.53805,-7.67908131 6.988821,-0.50549837 9.267396,9.08977351 2.800224,11.79193401 -1.566331,0.654444 -3.628141,0.59687 -5.022832,-0.140199 z" /></g></g></svg>
